<svg id="Capa_1" data-name="Capa 1" xmlns="http://www.w3.org/2000/svg" xmlns:xlink="http://www.w3.org/1999/xlink" viewBox="0 0 70 70"><defs><style>.cls-1{fill:url(#Degradado_sin_nombre_25);}.cls-2{opacity:0.77;}.cls-3{fill:#fff;}</style><linearGradient id="Degradado_sin_nombre_25" y1="35" x2="70" y2="35" gradientUnits="userSpaceOnUse"><stop offset="0.04" stop-color="#6966f3"/><stop offset="0.29" stop-color="#605ced"/><stop offset="0.69" stop-color="#4944dc"/></linearGradient></defs><title>70</title><circle class="cls-1" cx="35" cy="35" r="35"/><g class="cls-2"><path class="cls-3" d="M35,57.33c-3.69,0-7.37,0-11.06,0a17.61,17.61,0,0,1-4.73-.57,5.38,5.38,0,0,1-4.17-5A13.23,13.23,0,0,1,25.87,37.41a.86.86,0,0,0,.17,0c.6-.17.93-.1,1.09.65a3.48,3.48,0,0,0,1.77,2.06,10.49,10.49,0,0,0,4.74,1.47,12.66,12.66,0,0,0,6.57-1,6,6,0,0,0,1.89-1.3,3.14,3.14,0,0,0,.73-1.13c.09-.27.11-.74.27-.79a2.31,2.31,0,0,1,1,.08,13.21,13.21,0,0,1,10.8,11.47,10.82,10.82,0,0,1,0,3.06,5.42,5.42,0,0,1-4.67,4.94,25.87,25.87,0,0,1-5.34.46H35Z"/><path class="cls-3" d="M24,23.83A11,11,0,0,1,45.89,22.1a14.83,14.83,0,0,1-1.1,7.51,17.47,17.47,0,0,1-5,7.36,7,7,0,0,1-9.65,0,18.23,18.23,0,0,1-5.58-9.13A13.64,13.64,0,0,1,24,23.83Z"/></g></svg>