<svg id="Capa_1" data-name="Capa 1" xmlns="http://www.w3.org/2000/svg" xmlns:xlink="http://www.w3.org/1999/xlink" viewBox="0 0 259 59"><defs><style>.cls-1{fill:none;}.cls-2{opacity:0.77;}.cls-3{fill:#eaeaea;}.cls-4{fill:#4c4c4c;}.cls-5{fill:#666;}.cls-6{fill:#d9d9d9;}.cls-7{clip-path:url(#clip-path);}.cls-8{fill:#f441a5;}.cls-9{fill:#f341a6;}.cls-10{clip-path:url(#clip-path-2);}.cls-11{fill:#e53cb1;}.cls-12{fill:#e43cb2;}.cls-13{clip-path:url(#clip-path-3);}.cls-14{fill:#d637bd;}.cls-15{fill:#d536be;}.cls-16{fill:#d436bf;}.cls-17{clip-path:url(#clip-path-4);}.cls-18{fill:#c631ca;}.cls-19{fill:#c531cb;}.cls-20{clip-path:url(#clip-path-5);}.cls-21{fill:#b62cd6;}.cls-22{fill:#b52cd7;}.cls-23{fill:#b42cd8;}.cls-24{clip-path:url(#clip-path-6);}.cls-25{fill:#9722ef;}.cls-26{fill:#9621f0;}.cls-27{fill:#9521f1;}.cls-28{clip-path:url(#clip-path-7);}.cls-29{fill:#a627e3;}.cls-30{fill:#a527e4;}.cls-31{clip-path:url(#clip-path-8);}.cls-32{fill:#871cfc;}.cls-33{fill:#861cfd;}.cls-34{fill:#ccc;}.cls-35{clip-path:url(#clip-path-9);}.cls-36{fill:#f240a7;}.cls-37{fill:#f140a7;}.cls-38{fill:#f040a8;}.cls-39{fill:#ef3fa9;}.cls-40{fill:#ee3faa;}.cls-41{fill:#ed3fab;}.cls-42{fill:#ec3eab;}.cls-43{fill:#eb3eac;}.cls-44{fill:#ea3ead;}.cls-45{fill:#e93dae;}.cls-46{fill:#e83daf;}.cls-47{fill:#e73daf;}.cls-48{fill:#e63cb0;}.cls-49{fill:#e33bb3;}.cls-50{fill:#e23bb3;}.cls-51{fill:#e13bb4;}.cls-52{fill:#e03ab5;}.cls-53{fill:#df3ab6;}.cls-54{fill:#de3ab7;}.cls-55{fill:#dd39b7;}.cls-56{fill:#dc39b8;}.cls-57{fill:#db39b9;}.cls-58{fill:#da38ba;}.cls-59{fill:#d938bb;}.cls-60{fill:#d838bc;}.cls-61{fill:#d737bc;}.cls-62{fill:#d336c0;}.cls-63{fill:#d235c0;}.cls-64{fill:#d135c1;}.cls-65{fill:#d035c2;}.cls-66{fill:#cf34c3;}.cls-67{fill:#ce34c4;}.cls-68{fill:#cd34c4;}.cls-69{fill:#cc33c5;}.cls-70{fill:#cb33c6;}.cls-71{fill:#ca33c7;}.cls-72{fill:#c932c8;}.cls-73{fill:#c832c8;}.cls-74{fill:#c732c9;}.cls-75{fill:#c431cc;}.cls-76{fill:#c330cc;}.cls-77{fill:#c230cd;}.cls-78{fill:#c130ce;}.cls-79{fill:#c02fcf;}.cls-80{fill:#bf2fd0;}.cls-81{fill:#be2fd0;}.cls-82{fill:#bd2ed1;}.cls-83{fill:#bc2ed2;}.cls-84{fill:#ba2ed3;}.cls-85{fill:#b92dd4;}.cls-86{fill:#b82dd4;}.cls-87{fill:#b72dd5;}.cls-88{fill:#b32bd8;}.cls-89{fill:#b22bd9;}.cls-90{fill:#b12bda;}.cls-91{fill:#b02adb;}.cls-92{fill:#af2adc;}.cls-93{fill:#ae2adc;}.cls-94{fill:#ad29dd;}.cls-95{fill:#ac29de;}.cls-96{fill:#ab29df;}.cls-97{fill:#aa28e0;}.cls-98{fill:#a928e0;}.cls-99{fill:#a828e1;}.cls-100{fill:#a727e2;}.cls-101{fill:#a426e4;}.cls-102{fill:#a326e5;}.cls-103{fill:#a226e6;}.cls-104{fill:#a125e7;}.cls-105{fill:#a025e8;}.cls-106{fill:#9f25e9;}.cls-107{fill:#9e24e9;}.cls-108{fill:#9d24ea;}.cls-109{fill:#9c23eb;}.cls-110{fill:#9b23ec;}.cls-111{fill:#9a23ed;}.cls-112{fill:#9922ed;}.cls-113{fill:#9822ee;}.cls-114{fill:#9421f1;}.cls-115{fill:#9320f2;}.cls-116{fill:#9220f3;}.cls-117{fill:#9120f4;}.cls-118{fill:#901ff5;}.cls-119{fill:#8f1ff5;}.cls-120{fill:#8e1ff6;}.cls-121{fill:#8d1ef7;}.cls-122{fill:#8c1ef8;}.cls-123{fill:#8b1ef9;}.cls-124{fill:#8a1df9;}.cls-125{fill:#891dfa;}.cls-126{fill:#881dfb;}.cls-127{fill:#851cfd;}.cls-128{fill:#841bfe;}.cls-129{fill:#831bff;}.cls-130{clip-path:url(#clip-path-10);}.cls-131{clip-path:url(#clip-path-11);}.cls-132{clip-path:url(#clip-path-12);}.cls-133{clip-path:url(#clip-path-13);}.cls-134{clip-path:url(#clip-path-14);}.cls-135{clip-path:url(#clip-path-15);}.cls-136{clip-path:url(#clip-path-16);}.cls-137{clip-path:url(#clip-path-17);}.cls-138{clip-path:url(#clip-path-18);}.cls-139{clip-path:url(#clip-path-19);}.cls-140{clip-path:url(#clip-path-20);}.cls-141{clip-path:url(#clip-path-21);}.cls-142{clip-path:url(#clip-path-22);}.cls-143{clip-path:url(#clip-path-23);}.cls-144{clip-path:url(#clip-path-24);}.cls-145{clip-path:url(#clip-path-25);}.cls-146{clip-path:url(#clip-path-26);}.cls-147{clip-path:url(#clip-path-27);}.cls-148{clip-path:url(#clip-path-28);}.cls-149{clip-path:url(#clip-path-29);}.cls-150{clip-path:url(#clip-path-30);}.cls-151{clip-path:url(#clip-path-31);}.cls-152{clip-path:url(#clip-path-32);}.cls-153{fill:#e5e5e5;}</style><clipPath id="clip-path"><path class="cls-1" d="M174.43,38a.35.35,0,0,1-.35.35.35.35,0,0,1-.34-.35.34.34,0,0,1,.34-.34A.35.35,0,0,1,174.43,38Z"/></clipPath><clipPath id="clip-path-2"><path class="cls-1" d="M182.13,38a.35.35,0,0,1-.34.35.35.35,0,0,1-.35-.35.35.35,0,0,1,.35-.34A.34.34,0,0,1,182.13,38Z"/></clipPath><clipPath id="clip-path-3"><path class="cls-1" d="M189.83,38a.34.34,0,1,1-.68,0,.34.34,0,0,1,.68,0Z"/></clipPath><clipPath id="clip-path-4"><path class="cls-1" d="M197.54,38a.35.35,0,0,1-.35.35.35.35,0,0,1-.34-.35.34.34,0,0,1,.34-.34A.35.35,0,0,1,197.54,38Z"/></clipPath><clipPath id="clip-path-5"><path class="cls-1" d="M205.24,38a.34.34,0,1,1-.68,0,.34.34,0,0,1,.68,0Z"/></clipPath><clipPath id="clip-path-6"><path class="cls-1" d="M220.65,38a.35.35,0,0,1-.34.35A.35.35,0,0,1,220,38a.35.35,0,0,1,.35-.34A.34.34,0,0,1,220.65,38Z"/></clipPath><clipPath id="clip-path-7"><path class="cls-1" d="M213,38a.35.35,0,0,1-.35.35.35.35,0,0,1-.34-.35.34.34,0,0,1,.34-.34A.35.35,0,0,1,213,38Z"/></clipPath><clipPath id="clip-path-8"><path class="cls-1" d="M228.36,38a.35.35,0,0,1-.35.35.35.35,0,0,1-.34-.35.34.34,0,0,1,.34-.34A.35.35,0,0,1,228.36,38Z"/></clipPath><clipPath id="clip-path-9"><path class="cls-1" d="M174.25,32.85a.29.29,0,0,1-.25-.14.28.28,0,0,1,.1-.39l3.79-2.25a6.49,6.49,0,0,1,7,.25,6,6,0,0,0,7.79-.82l2.47-2.63a6.63,6.63,0,0,1,4.79-2.06h2.59a6.58,6.58,0,0,1,4.82,2.1l1.74,1.87a5.68,5.68,0,0,0,7.68.57,6.48,6.48,0,0,1,6.85-.76l4.55,2.21a.28.28,0,0,1-.25.51l-4.55-2.2a5.89,5.89,0,0,0-6.24.69,6.26,6.26,0,0,1-8.46-.63L206.9,27.3a6,6,0,0,0-4.4-1.92h-2.59a6,6,0,0,0-4.37,1.89l-2.47,2.62a6.55,6.55,0,0,1-8.54.9,5.89,5.89,0,0,0-6.35-.22l-3.79,2.24A.23.23,0,0,1,174.25,32.85Z"/></clipPath><clipPath id="clip-path-10"><path class="cls-1" d="M182.63,29.53a.85.85,0,1,1-.84-.84A.85.85,0,0,1,182.63,29.53Z"/></clipPath><clipPath id="clip-path-11"><path class="cls-1" d="M190.33,31.5a.84.84,0,1,1-.84-.84A.84.84,0,0,1,190.33,31.5Z"/></clipPath><clipPath id="clip-path-12"><path class="cls-1" d="M198,25.66a.85.85,0,1,1-.85-.85A.85.85,0,0,1,198,25.66Z"/></clipPath><clipPath id="clip-path-13"><path class="cls-1" d="M205.74,25.66a.84.84,0,1,1-.84-.85A.84.84,0,0,1,205.74,25.66Z"/></clipPath><clipPath id="clip-path-14"><path class="cls-1" d="M213.45,30.66a.85.85,0,1,1-.85-.84A.84.84,0,0,1,213.45,30.66Z"/></clipPath><clipPath id="clip-path-15"><path class="cls-1" d="M221.15,28.27a.85.85,0,1,1-.84-.85A.85.85,0,0,1,221.15,28.27Z"/></clipPath><clipPath id="clip-path-16"><circle class="cls-1" cx="227.96" cy="31.09" r="0.84"/></clipPath><clipPath id="clip-path-17"><path class="cls-1" d="M102.43,38a.35.35,0,0,1-.35.35.35.35,0,0,1-.34-.35.34.34,0,0,1,.34-.34A.35.35,0,0,1,102.43,38Z"/></clipPath><clipPath id="clip-path-18"><path class="cls-1" d="M110.13,38a.35.35,0,0,1-.34.35.35.35,0,0,1-.35-.35.35.35,0,0,1,.35-.34A.34.34,0,0,1,110.13,38Z"/></clipPath><clipPath id="clip-path-19"><path class="cls-1" d="M117.83,38a.34.34,0,1,1-.68,0,.34.34,0,1,1,.68,0Z"/></clipPath><clipPath id="clip-path-20"><path class="cls-1" d="M125.54,38a.35.35,0,0,1-.35.35.35.35,0,0,1-.34-.35.34.34,0,0,1,.34-.34A.35.35,0,0,1,125.54,38Z"/></clipPath><clipPath id="clip-path-21"><path class="cls-1" d="M133.24,38a.34.34,0,1,1-.68,0,.34.34,0,1,1,.68,0Z"/></clipPath><clipPath id="clip-path-22"><path class="cls-1" d="M148.65,38a.35.35,0,0,1-.34.35A.35.35,0,0,1,148,38a.35.35,0,0,1,.35-.34A.34.34,0,0,1,148.65,38Z"/></clipPath><clipPath id="clip-path-23"><path class="cls-1" d="M141,38a.35.35,0,0,1-.35.35.35.35,0,0,1-.34-.35.34.34,0,0,1,.34-.34A.35.35,0,0,1,141,38Z"/></clipPath><clipPath id="clip-path-24"><path class="cls-1" d="M156.36,38a.35.35,0,0,1-.35.35.35.35,0,0,1-.34-.35.34.34,0,0,1,.34-.34A.35.35,0,0,1,156.36,38Z"/></clipPath><clipPath id="clip-path-25"><path class="cls-1" d="M102.25,32.85a.29.29,0,0,1-.25-.14.28.28,0,0,1,.1-.39l3.79-2.25a6.49,6.49,0,0,1,7,.25,6,6,0,0,0,7.79-.82l2.47-2.63a6.63,6.63,0,0,1,4.79-2.06h2.59a6.58,6.58,0,0,1,4.82,2.1l1.74,1.87a5.68,5.68,0,0,0,7.68.57,6.48,6.48,0,0,1,6.85-.76l4.55,2.21a.28.28,0,0,1-.25.51l-4.55-2.2a5.89,5.89,0,0,0-6.24.69,6.26,6.26,0,0,1-8.46-.63L134.9,27.3a6,6,0,0,0-4.4-1.92h-2.59a6,6,0,0,0-4.37,1.89l-2.47,2.62a6.55,6.55,0,0,1-8.54.9,5.89,5.89,0,0,0-6.35-.22l-3.79,2.24A.23.23,0,0,1,102.25,32.85Z"/></clipPath><clipPath id="clip-path-26"><path class="cls-1" d="M110.63,29.53a.85.85,0,1,1-.84-.84A.85.85,0,0,1,110.63,29.53Z"/></clipPath><clipPath id="clip-path-27"><path class="cls-1" d="M118.33,31.5a.84.84,0,1,1-.84-.84A.84.84,0,0,1,118.33,31.5Z"/></clipPath><clipPath id="clip-path-28"><path class="cls-1" d="M126,25.66a.85.85,0,1,1-.85-.85A.85.85,0,0,1,126,25.66Z"/></clipPath><clipPath id="clip-path-29"><path class="cls-1" d="M133.74,25.66a.84.84,0,1,1-.84-.85A.84.84,0,0,1,133.74,25.66Z"/></clipPath><clipPath id="clip-path-30"><path class="cls-1" d="M141.45,30.66a.85.85,0,1,1-.85-.84A.84.84,0,0,1,141.45,30.66Z"/></clipPath><clipPath id="clip-path-31"><path class="cls-1" d="M149.15,28.27a.85.85,0,1,1-.84-.85A.85.85,0,0,1,149.15,28.27Z"/></clipPath><clipPath id="clip-path-32"><circle class="cls-1" cx="155.96" cy="31.09" r="0.84"/></clipPath></defs><title>81</title><g class="cls-2"><rect class="cls-3" x="72" y="9.5" width="168.8" height="40" rx="12.58" ry="12.58"/></g><path class="cls-4" d="M169.8,17.35l0,0h0l-.06,0-.07-.05-.1,0-.14,0-.12,0a.19.19,0,0,0-.09.05.2.2,0,0,0-.06.07.28.28,0,0,0,0,.09.18.18,0,0,0,0,.11l.1.07.13.06.16.05.16.06.13.09a.71.71,0,0,1,.1.14.54.54,0,0,1,0,.19.59.59,0,0,1,0,.23.52.52,0,0,1-.12.19.53.53,0,0,1-.2.13.76.76,0,0,1-.27.05l-.18,0L169,18.8l-.14-.08-.13-.1.1-.16,0,0h0l.07,0,.09.05a.39.39,0,0,0,.11.06.43.43,0,0,0,.17,0,.36.36,0,0,0,.22-.07.23.23,0,0,0,.08-.2.21.21,0,0,0,0-.12l-.1-.07-.13-.06-.16,0L169,18a.71.71,0,0,1-.14-.1.34.34,0,0,1-.09-.14.46.46,0,0,1,0-.21.5.5,0,0,1,.16-.36.57.57,0,0,1,.18-.12.71.71,0,0,1,.26,0,.73.73,0,0,1,.3.05.59.59,0,0,1,.23.14Z"/><path class="cls-4" d="M170.41,18.24a.47.47,0,0,0,0,.17.35.35,0,0,0,.07.12l.11.07a.34.34,0,0,0,.14,0h.13l.1,0,.07,0a.07.07,0,0,1,.06,0,.06.06,0,0,1,.06,0l.09.11a.38.38,0,0,1-.12.1l-.13.07-.14,0h-.15a.69.69,0,0,1-.25,0,.53.53,0,0,1-.2-.13.69.69,0,0,1-.14-.22.94.94,0,0,1,0-.3.7.7,0,0,1,0-.25.72.72,0,0,1,.12-.21.58.58,0,0,1,.2-.13.53.53,0,0,1,.26,0,.51.51,0,0,1,.22,0,.42.42,0,0,1,.18.11.52.52,0,0,1,.12.19.62.62,0,0,1,0,.25.22.22,0,0,1,0,.09.06.06,0,0,1-.06,0Zm.59-.19a.49.49,0,0,0,0-.12.47.47,0,0,0-.06-.09.27.27,0,0,0-.08-.07l-.13,0a.29.29,0,0,0-.21.08.41.41,0,0,0-.1.22Z"/><path class="cls-4" d="M172.65,17v1.89h-.2a.07.07,0,0,1-.07-.06l0-.13a.65.65,0,0,1-.18.15.47.47,0,0,1-.24.05.41.41,0,0,1-.19,0,.48.48,0,0,1-.16-.13.51.51,0,0,1-.09-.21.79.79,0,0,1,0-.28.77.77,0,0,1,0-.27.7.7,0,0,1,.11-.21.65.65,0,0,1,.18-.15.56.56,0,0,1,.23-.05.34.34,0,0,1,.18,0,.34.34,0,0,1,.14.09V17Zm-.32.92a.19.19,0,0,0-.11-.09.32.32,0,0,0-.14,0,.31.31,0,0,0-.13,0,.17.17,0,0,0-.09.08.26.26,0,0,0-.06.13.6.6,0,0,0,0,.2.92.92,0,0,0,0,.19.32.32,0,0,0,.05.13.18.18,0,0,0,.09.07.2.2,0,0,0,.11,0,.38.38,0,0,0,.16,0,.49.49,0,0,0,.13-.12Z"/><path class="cls-4" d="M174.7,17v1.89h-.19a.08.08,0,0,1-.08-.06l0-.13a.65.65,0,0,1-.18.15.47.47,0,0,1-.24.05.41.41,0,0,1-.19,0,.37.37,0,0,1-.15-.13.41.41,0,0,1-.1-.21.79.79,0,0,1,0-.28,1.1,1.1,0,0,1,0-.27,1,1,0,0,1,.11-.21.65.65,0,0,1,.18-.15.59.59,0,0,1,.23-.05.38.38,0,0,1,.19,0,.55.55,0,0,1,.14.09V17Zm-.31.92a.24.24,0,0,0-.12-.09.32.32,0,0,0-.14,0,.24.24,0,0,0-.12,0,.19.19,0,0,0-.1.08.26.26,0,0,0-.06.13.62.62,0,0,0,0,.2,1,1,0,0,0,0,.19.32.32,0,0,0,.06.13.13.13,0,0,0,.08.07.2.2,0,0,0,.11,0,.43.43,0,0,0,.17,0l.13-.12Z"/><path class="cls-4" d="M175.37,17.17a.15.15,0,0,1,0,.07.18.18,0,0,1-.05.07l-.06,0h-.16l-.06,0a.16.16,0,0,1,0-.07.14.14,0,0,1,0-.07.19.19,0,0,1,0-.08s0-.05,0-.06l.06-.05h.16a.43.43,0,0,1,.11.11A.19.19,0,0,1,175.37,17.17Zm0,.38v1.3H175v-1.3Z"/><path class="cls-4" d="M175.62,17.73a.76.76,0,0,1,.54-.21.65.65,0,0,1,.2,0,.4.4,0,0,1,.15.1.39.39,0,0,1,.1.16.66.66,0,0,1,0,.21v.82h-.14l-.07,0a.11.11,0,0,1,0,0l0-.1-.09.08a.33.33,0,0,1-.1.06.35.35,0,0,1-.11,0l-.12,0a.41.41,0,0,1-.16,0,.34.34,0,0,1-.12-.06.26.26,0,0,1-.07-.11.41.41,0,0,1,0-.16.28.28,0,0,1,0-.09.33.33,0,0,1,.06-.1.36.36,0,0,1,.09-.08.52.52,0,0,1,.15-.07l.2-.05.27,0V18a.28.28,0,0,0-.06-.2.21.21,0,0,0-.16-.06l-.13,0-.08,0-.07,0h-.13s0,0,0,0Zm.72.56-.23,0-.15.05a.28.28,0,0,0-.08.06.11.11,0,0,0,0,.08.13.13,0,0,0,0,.12.21.21,0,0,0,.12,0,.43.43,0,0,0,.17,0,.67.67,0,0,0,.14-.11Z"/><path class="cls-4" d="M176.93,18.85v-1.3h.2a.09.09,0,0,1,.08.05l0,.1.07-.07.08-.05.09,0h.11a.34.34,0,0,1,.2.06.57.57,0,0,1,.12.18.41.41,0,0,1,.07-.11l.1-.08.12,0h.12a.54.54,0,0,1,.19,0,.28.28,0,0,1,.14.1.38.38,0,0,1,.09.15.66.66,0,0,1,0,.21v.83h-.31V18a.27.27,0,0,0-.06-.19.2.2,0,0,0-.16-.06l-.09,0-.07,0a.22.22,0,0,0,0,.08.37.37,0,0,0,0,.11v.83h-.32V18a.31.31,0,0,0-.05-.19.21.21,0,0,0-.16-.06.27.27,0,0,0-.12,0l-.11.09v1Z"/><path class="cls-5" d="M170,38.46v.09h-.82v-.09h.36V37.17s0-.05,0-.08l-.35.31s0,0,0,0h0l0,0,.46-.4h.08v1.51Z"/><path class="cls-5" d="M171.44,37.75a1.25,1.25,0,0,1-.05.36.89.89,0,0,1-.12.26.49.49,0,0,1-.18.14.46.46,0,0,1-.23.05.44.44,0,0,1-.22-.05.49.49,0,0,1-.18-.14.89.89,0,0,1-.12-.26,1.64,1.64,0,0,1,0-.72.89.89,0,0,1,.12-.26.49.49,0,0,1,.18-.14.44.44,0,0,1,.22-.05.46.46,0,0,1,.23.05.49.49,0,0,1,.18.14.89.89,0,0,1,.12.26A1.25,1.25,0,0,1,171.44,37.75Zm-.12,0a1.55,1.55,0,0,0,0-.33,1,1,0,0,0-.1-.23.35.35,0,0,0-.15-.12.34.34,0,0,0-.18,0,.35.35,0,0,0-.17,0,.42.42,0,0,0-.15.12,1,1,0,0,0-.1.23,1.83,1.83,0,0,0,0,.66,1,1,0,0,0,.1.23.42.42,0,0,0,.15.12.35.35,0,0,0,.17,0,.34.34,0,0,0,.18,0,.35.35,0,0,0,.15-.12,1,1,0,0,0,.1-.23A1.55,1.55,0,0,0,171.32,37.75Z"/><path class="cls-5" d="M170,32h0l0,0v.06h-1V32l0,0,.54-.55a1.59,1.59,0,0,0,.13-.13.64.64,0,0,0,.1-.13.38.38,0,0,0,.06-.13.4.4,0,0,0,0-.15.33.33,0,0,0,0-.15.44.44,0,0,0-.08-.11l-.11-.06-.13,0-.14,0-.12.07-.08.1a.42.42,0,0,0,0,.12s0,0,0,0h-.09a.78.78,0,0,1,0-.18.49.49,0,0,1,.44-.25.47.47,0,0,1,.17,0,.28.28,0,0,1,.15.08.32.32,0,0,1,.1.13.38.38,0,0,1,0,.19.47.47,0,0,1,0,.17.61.61,0,0,1-.07.14,1.71,1.71,0,0,1-.11.14l-.14.14-.49.51.07,0H170Z"/><path class="cls-5" d="M171.44,31.3a1.38,1.38,0,0,1-.05.37.83.83,0,0,1-.12.25.43.43,0,0,1-.18.15.59.59,0,0,1-.23,0,.59.59,0,0,1-.22,0,.43.43,0,0,1-.18-.15.83.83,0,0,1-.12-.25,1.4,1.4,0,0,1,0-.37,1.28,1.28,0,0,1,0-.36.73.73,0,0,1,.12-.25.43.43,0,0,1,.18-.15.59.59,0,0,1,.22-.05.59.59,0,0,1,.23.05.43.43,0,0,1,.18.15.73.73,0,0,1,.12.25A1.25,1.25,0,0,1,171.44,31.3Zm-.12,0a1.55,1.55,0,0,0,0-.33.9.9,0,0,0-.1-.22.37.37,0,0,0-.15-.13.34.34,0,0,0-.18,0,.35.35,0,0,0-.17,0,.45.45,0,0,0-.15.13.9.9,0,0,0-.1.22,1.55,1.55,0,0,0,0,.33,1.72,1.72,0,0,0,0,.34.9.9,0,0,0,.1.22.45.45,0,0,0,.15.13.53.53,0,0,0,.17,0,.48.48,0,0,0,.18,0,.37.37,0,0,0,.15-.13.9.9,0,0,0,.1-.22A1.72,1.72,0,0,0,171.32,31.3Z"/><path class="cls-5" d="M169.08,24.48a.6.6,0,0,1,.06-.19.45.45,0,0,1,.11-.13.42.42,0,0,1,.14-.09l.19,0a.5.5,0,0,1,.17,0,.39.39,0,0,1,.14.08.4.4,0,0,1,.1.12.48.48,0,0,1,0,.18.32.32,0,0,1,0,.14.41.41,0,0,1-.07.11.34.34,0,0,1-.09.08l-.13,0A.38.38,0,0,1,170,25a.42.42,0,0,1,.05.44.36.36,0,0,1-.1.14.54.54,0,0,1-.16.1.76.76,0,0,1-.21,0,.69.69,0,0,1-.22,0,.44.44,0,0,1-.15-.1.38.38,0,0,1-.09-.13,1.47,1.47,0,0,1-.06-.14l.05,0h0s0,0,0,0,0,0,0,0a.25.25,0,0,0,0,.07l0,.07.07.06a.22.22,0,0,0,.11,0,.32.32,0,0,0,.14,0,.48.48,0,0,0,.18,0,.27.27,0,0,0,.12-.09.21.21,0,0,0,.08-.11.35.35,0,0,0,0-.13.35.35,0,0,0,0-.14.23.23,0,0,0-.07-.1.53.53,0,0,0-.15-.08l-.21,0V24.8a.48.48,0,0,0,.18,0,.27.27,0,0,0,.13-.07.25.25,0,0,0,.08-.1.34.34,0,0,0,0-.28.2.2,0,0,0-.08-.1.2.2,0,0,0-.11-.06.27.27,0,0,0-.13,0,.34.34,0,0,0-.14,0l-.11.06a.39.39,0,0,0-.08.1.5.5,0,0,0-.05.13s0,0,0,0h-.09Z"/><path class="cls-5" d="M171.44,24.86a1.25,1.25,0,0,1-.05.36.73.73,0,0,1-.12.25.43.43,0,0,1-.18.15.46.46,0,0,1-.23.05.44.44,0,0,1-.22-.05.43.43,0,0,1-.18-.15.73.73,0,0,1-.12-.25,1.64,1.64,0,0,1,0-.72.89.89,0,0,1,.12-.26.65.65,0,0,1,.18-.15.57.57,0,0,1,.22,0,.59.59,0,0,1,.23,0,.65.65,0,0,1,.18.15.89.89,0,0,1,.12.26A1.25,1.25,0,0,1,171.44,24.86Zm-.12,0a1.55,1.55,0,0,0,0-.33,1,1,0,0,0-.1-.23.35.35,0,0,0-.15-.12.34.34,0,0,0-.18,0,.35.35,0,0,0-.17,0,.42.42,0,0,0-.15.12,1,1,0,0,0-.1.23,1.83,1.83,0,0,0,0,.66,1,1,0,0,0,.1.23.42.42,0,0,0,.15.12.35.35,0,0,0,.17,0,.34.34,0,0,0,.18,0,.35.35,0,0,0,.15-.12,1,1,0,0,0,.1-.23A1.55,1.55,0,0,0,171.32,24.86Z"/><path class="cls-5" d="M175,41.13a1.07,1.07,0,0,1-.05.37.89.89,0,0,1-.12.26.53.53,0,0,1-.19.15.6.6,0,0,1-.24.05.69.69,0,0,1-.24-.05.43.43,0,0,1-.18-.15.71.71,0,0,1-.13-.26,1.4,1.4,0,0,1,0-.37,1.35,1.35,0,0,1,0-.37.64.64,0,0,1,.13-.26.43.43,0,0,1,.18-.15.52.52,0,0,1,.24-.05.47.47,0,0,1,.24.05.53.53,0,0,1,.19.15.79.79,0,0,1,.12.26A1,1,0,0,1,175,41.13Zm-.29,0a2.07,2.07,0,0,0,0-.29.69.69,0,0,0-.07-.19.21.21,0,0,0-.1-.09.27.27,0,0,0-.12,0,.2.2,0,0,0-.11,0,.21.21,0,0,0-.1.09.69.69,0,0,0-.07.19,1.12,1.12,0,0,0,0,.29,1.17,1.17,0,0,0,0,.29.69.69,0,0,0,.07.19.28.28,0,0,0,.1.09.2.2,0,0,0,.11,0,.27.27,0,0,0,.12,0,.28.28,0,0,0,.1-.09.69.69,0,0,0,.07-.19A2.19,2.19,0,0,0,174.73,41.13Z"/><path class="cls-5" d="M182.32,41.73v.21h-.9v-.21h.33V40.67l-.23.2h-.08l0,0h0l-.09-.12.5-.43H182v1.42Z"/><path class="cls-5" d="M189.93,41.68a.11.11,0,0,1,.07,0,.14.14,0,0,1,0,.07v.16h-1.11v-.09a.13.13,0,0,1,0-.06.1.1,0,0,1,0,0l.49-.5.11-.12.08-.11a.61.61,0,0,0,.05-.12.5.5,0,0,0,0-.12.3.3,0,0,0,0-.1.14.14,0,0,0-.05-.08l-.07,0-.1,0h-.09l-.07,0-.06.06,0,.08s0,.06-.05.07h-.09l-.15,0a1,1,0,0,1,.07-.21.41.41,0,0,1,.12-.14.46.46,0,0,1,.17-.09.68.68,0,0,1,.4,0,.35.35,0,0,1,.16.09.42.42,0,0,1,.11.15.58.58,0,0,1,0,.19.47.47,0,0,1,0,.17.61.61,0,0,1-.07.14.76.76,0,0,1-.11.14l-.12.13-.37.38.11,0h.52Z"/><path class="cls-5" d="M196.61,40.77a.65.65,0,0,1,.06-.21.41.41,0,0,1,.12-.14.56.56,0,0,1,.17-.09.64.64,0,0,1,.2,0,.6.6,0,0,1,.2,0,.35.35,0,0,1,.16.09.64.64,0,0,1,.1.13.47.47,0,0,1,0,.17.27.27,0,0,1,0,.13.22.22,0,0,1,0,.11.19.19,0,0,1-.08.07l-.11,0a.44.44,0,0,1,.22.14.38.38,0,0,1,.07.24.46.46,0,0,1,0,.21.4.4,0,0,1-.12.16.52.52,0,0,1-.18.1.76.76,0,0,1-.21,0,.73.73,0,0,1-.22,0,.36.36,0,0,1-.15-.08.41.41,0,0,1-.12-.14.75.75,0,0,1-.08-.18l.12-.05a.1.1,0,0,1,.09,0,.07.07,0,0,1,.06,0,.56.56,0,0,0,0,.08.13.13,0,0,0,.06.07.18.18,0,0,0,.07.05l.11,0a.28.28,0,0,0,.13,0l.09-.06a.22.22,0,0,0,0-.08.29.29,0,0,0,0-.09.36.36,0,0,0,0-.11.1.1,0,0,0,0-.08.23.23,0,0,0-.11-.05.59.59,0,0,0-.2,0V41l.17,0a.28.28,0,0,0,.11-.05.14.14,0,0,0,.05-.08.15.15,0,0,0,0-.09.24.24,0,0,0-.06-.18.25.25,0,0,0-.17-.06h-.1l-.07,0-.06.06,0,.08a.13.13,0,0,1,0,.07h-.09Z"/><path class="cls-5" d="M205.4,41.33v.16l0,0h-.19v.4H205v-.4h-.73a.05.05,0,0,1,0-.05l0-.14.77-1h.26v1Zm-.45,0V40.8a1,1,0,0,1,0-.17l-.5.7Z"/><path class="cls-5" d="M212.27,40.91l.11,0h.09a.79.79,0,0,1,.23,0,.46.46,0,0,1,.16.11.34.34,0,0,1,.1.16.41.41,0,0,1,0,.19.6.6,0,0,1-.05.24.57.57,0,0,1-.12.18.67.67,0,0,1-.2.12.61.61,0,0,1-.24,0,.32.32,0,0,1-.14,0l-.13,0-.11-.06a.35.35,0,0,1-.09-.07l.08-.12a.08.08,0,0,1,.07,0l.06,0,.07,0,.08,0,.13,0a.28.28,0,0,0,.13,0,.23.23,0,0,0,.1-.07.33.33,0,0,0,.06-.1.59.59,0,0,0,0-.14.28.28,0,0,0-.08-.2.32.32,0,0,0-.23-.08,1,1,0,0,0-.23,0l-.18,0,.14-.79h.8v.11a.13.13,0,0,1,0,.1.17.17,0,0,1-.12,0h-.45Z"/><path class="cls-5" d="M220.07,40.91,220,41l.1,0h.12a.57.57,0,0,1,.18,0,.51.51,0,0,1,.16.09.4.4,0,0,1,.1.15.46.46,0,0,1,0,.21.54.54,0,0,1,0,.22.66.66,0,0,1-.12.17.57.57,0,0,1-.18.12.59.59,0,0,1-.23,0,.61.61,0,0,1-.24,0,.66.66,0,0,1-.17-.12.57.57,0,0,1-.12-.18.85.85,0,0,1,0-.23.67.67,0,0,1,0-.24,1,1,0,0,1,.15-.25l.39-.52s0,0,.05-.05h.34Zm.06.82a.22.22,0,0,0,.12,0,.33.33,0,0,0,.1-.06.21.21,0,0,0,.06-.1.22.22,0,0,0,0-.12.25.25,0,0,0,0-.12.21.21,0,0,0-.06-.1l-.09-.06-.12,0a.21.21,0,0,0-.12,0,.21.21,0,0,0-.1.06l-.06.09a.5.5,0,0,0,0,.12.37.37,0,0,0,0,.12.21.21,0,0,0,.06.1.15.15,0,0,0,.09.06A.23.23,0,0,0,220.13,41.73Z"/><path class="cls-5" d="M228.38,40.32v.12a.19.19,0,0,1,0,.08.14.14,0,0,1,0,.06l-.61,1.27-.06.07-.09,0h-.2L228,40.7a.16.16,0,0,1,0-.07l0-.06h-.77l0,0a.08.08,0,0,1,0,0v-.18Z"/><path class="cls-6" d="M228,31.58H174.43a.09.09,0,0,1-.08-.08.08.08,0,0,1,.08-.07H228a.07.07,0,0,1,.07.07A.08.08,0,0,1,228,31.58Z"/><path class="cls-6" d="M228,25.1H174.43a.07.07,0,1,1,0-.14H228a.07.07,0,0,1,0,.14Z"/><path class="cls-6" d="M228,38.05H174.43a.07.07,0,1,1,0-.14H228a.07.07,0,1,1,0,.14Z"/><g class="cls-7"><rect class="cls-8" x="173.74" y="37.64" width="0.48" height="0.69"/><rect class="cls-9" x="174.22" y="37.64" width="0.21" height="0.69"/></g><g class="cls-10"><rect class="cls-11" x="181.44" y="37.64" width="0.24" height="0.69"/><rect class="cls-12" x="181.68" y="37.64" width="0.45" height="0.69"/></g><g class="cls-13"><rect class="cls-14" x="189.15" y="37.64" height="0.69"/><rect class="cls-15" x="189.15" y="37.64" width="0.5" height="0.69"/><rect class="cls-16" x="189.64" y="37.64" width="0.19" height="0.69"/></g><g class="cls-17"><rect class="cls-18" x="196.85" y="37.64" width="0.26" height="0.69"/><rect class="cls-19" x="197.11" y="37.64" width="0.43" height="0.69"/></g><g class="cls-20"><rect class="cls-21" x="204.56" y="37.64" width="0.02" height="0.69"/><rect class="cls-22" x="204.57" y="37.64" width="0.5" height="0.69"/><rect class="cls-23" x="205.07" y="37.64" width="0.17" height="0.69"/></g><g class="cls-24"><rect class="cls-25" x="219.96" y="37.64" width="0.03" height="0.69"/><rect class="cls-26" x="220" y="37.64" width="0.5" height="0.69"/><rect class="cls-27" x="220.5" y="37.64" width="0.16" height="0.69"/></g><g class="cls-28"><rect class="cls-29" x="212.26" y="37.64" width="0.27" height="0.69"/><rect class="cls-30" x="212.53" y="37.64" width="0.41" height="0.69"/></g><g class="cls-31"><rect class="cls-32" x="227.67" y="37.64" width="0.29" height="0.69"/><rect class="cls-33" x="227.96" y="37.64" width="0.4" height="0.69"/></g><path class="cls-34" d="M177.94,38a.23.23,0,0,1-.23.23.23.23,0,1,1,0-.45A.22.22,0,0,1,177.94,38Z"/><path class="cls-34" d="M185.67,38a.23.23,0,1,1-.45,0,.22.22,0,0,1,.22-.22A.22.22,0,0,1,185.67,38Z"/><path class="cls-34" d="M193.4,38a.23.23,0,1,1-.22-.22A.22.22,0,0,1,193.4,38Z"/><path class="cls-34" d="M201.14,38a.23.23,0,1,1-.45,0,.22.22,0,0,1,.22-.22A.22.22,0,0,1,201.14,38Z"/><path class="cls-34" d="M208.87,38a.23.23,0,1,1-.45,0,.22.22,0,0,1,.22-.22A.22.22,0,0,1,208.87,38Z"/><path class="cls-34" d="M216.6,38a.23.23,0,1,1-.22-.22A.22.22,0,0,1,216.6,38Z"/><path class="cls-34" d="M224.34,38a.23.23,0,1,1-.45,0,.22.22,0,0,1,.22-.22A.22.22,0,0,1,224.34,38Z"/><g class="cls-35"><rect class="cls-8" x="173.92" y="24.81" width="0.04" height="8.05"/><rect class="cls-8" x="173.96" y="24.81" width="0.48" height="8.05"/><rect class="cls-9" x="174.44" y="24.81" width="0.48" height="8.05"/><rect class="cls-36" x="174.92" y="24.81" width="0.48" height="8.05"/><rect class="cls-37" x="175.4" y="24.81" width="0.48" height="8.05"/><rect class="cls-38" x="175.88" y="24.81" width="0.48" height="8.05"/><rect class="cls-39" x="176.36" y="24.81" width="0.48" height="8.05"/><rect class="cls-40" x="176.84" y="24.81" width="0.48" height="8.05"/><rect class="cls-41" x="177.33" y="24.81" width="0.48" height="8.05"/><rect class="cls-42" x="177.81" y="24.81" width="0.48" height="8.05"/><rect class="cls-43" x="178.29" y="24.81" width="0.48" height="8.05"/><rect class="cls-44" x="178.77" y="24.81" width="0.48" height="8.05"/><rect class="cls-45" x="179.25" y="24.81" width="0.48" height="8.05"/><rect class="cls-46" x="179.73" y="24.81" width="0.48" height="8.05"/><rect class="cls-47" x="180.21" y="24.81" width="0.48" height="8.05"/><rect class="cls-48" x="180.69" y="24.81" width="0.48" height="8.05"/><rect class="cls-11" x="181.17" y="24.81" width="0.48" height="8.05"/><rect class="cls-12" x="181.65" y="24.81" width="0.48" height="8.05"/><rect class="cls-49" x="182.13" y="24.81" width="0.48" height="8.05"/><rect class="cls-50" x="182.62" y="24.81" width="0.48" height="8.05"/><rect class="cls-51" x="183.1" y="24.81" width="0.48" height="8.05"/><rect class="cls-52" x="183.58" y="24.81" width="0.48" height="8.05"/><rect class="cls-53" x="184.06" y="24.81" width="0.48" height="8.05"/><rect class="cls-54" x="184.54" y="24.81" width="0.48" height="8.05"/><rect class="cls-55" x="185.02" y="24.81" width="0.48" height="8.05"/><rect class="cls-56" x="185.5" y="24.81" width="0.48" height="8.05"/><rect class="cls-57" x="185.98" y="24.81" width="0.48" height="8.05"/><rect class="cls-58" x="186.46" y="24.81" width="0.48" height="8.05"/><rect class="cls-59" x="186.94" y="24.81" width="0.48" height="8.05"/><rect class="cls-60" x="187.42" y="24.81" width="0.48" height="8.05"/><rect class="cls-61" x="187.91" y="24.81" width="0.48" height="8.05"/><rect class="cls-14" x="188.39" y="24.81" width="0.48" height="8.05"/><rect class="cls-15" x="188.87" y="24.81" width="0.48" height="8.05"/><rect class="cls-16" x="189.35" y="24.81" width="0.48" height="8.05"/><rect class="cls-62" x="189.83" y="24.81" width="0.48" height="8.05"/><rect class="cls-63" x="190.31" y="24.81" width="0.48" height="8.05"/><rect class="cls-64" x="190.79" y="24.81" width="0.48" height="8.05"/><rect class="cls-65" x="191.27" y="24.81" width="0.48" height="8.05"/><rect class="cls-66" x="191.75" y="24.81" width="0.48" height="8.05"/><rect class="cls-67" x="192.23" y="24.81" width="0.48" height="8.05"/><rect class="cls-68" x="192.71" y="24.81" width="0.48" height="8.05"/><rect class="cls-69" x="193.2" y="24.81" width="0.48" height="8.05"/><rect class="cls-70" x="193.68" y="24.81" width="0.48" height="8.05"/><rect class="cls-71" x="194.16" y="24.81" width="0.48" height="8.05"/><rect class="cls-72" x="194.64" y="24.81" width="0.48" height="8.05"/><rect class="cls-73" x="195.12" y="24.81" width="0.48" height="8.05"/><rect class="cls-74" x="195.6" y="24.81" width="0.48" height="8.05"/><rect class="cls-18" x="196.08" y="24.81" width="0.48" height="8.05"/><rect class="cls-19" x="196.56" y="24.81" width="0.48" height="8.05"/><rect class="cls-75" x="197.04" y="24.81" width="0.48" height="8.05"/><rect class="cls-76" x="197.52" y="24.81" width="0.48" height="8.05"/><rect class="cls-77" x="198" y="24.81" width="0.48" height="8.05"/><rect class="cls-78" x="198.48" y="24.81" width="0.48" height="8.05"/><rect class="cls-79" x="198.97" y="24.81" width="0.48" height="8.05"/><rect class="cls-80" x="199.45" y="24.81" width="0.48" height="8.05"/><rect class="cls-81" x="199.93" y="24.81" width="0.48" height="8.05"/><rect class="cls-82" x="200.41" y="24.81" width="0.48" height="8.05"/><rect class="cls-83" x="200.89" y="24.81" width="0.48" height="8.05"/><rect class="cls-84" x="201.37" y="24.81" width="0.48" height="8.05"/><rect class="cls-85" x="201.85" y="24.81" width="0.48" height="8.05"/><rect class="cls-86" x="202.33" y="24.81" width="0.48" height="8.05"/><rect class="cls-87" x="202.81" y="24.81" width="0.48" height="8.05"/><rect class="cls-21" x="203.29" y="24.81" width="0.48" height="8.05"/><rect class="cls-22" x="203.77" y="24.81" width="0.48" height="8.05"/><rect class="cls-23" x="204.26" y="24.81" width="0.48" height="8.05"/><rect class="cls-88" x="204.74" y="24.81" width="0.48" height="8.05"/><rect class="cls-89" x="205.22" y="24.81" width="0.48" height="8.05"/><rect class="cls-90" x="205.7" y="24.81" width="0.48" height="8.05"/><rect class="cls-91" x="206.18" y="24.81" width="0.48" height="8.05"/><rect class="cls-92" x="206.66" y="24.81" width="0.48" height="8.05"/><rect class="cls-93" x="207.14" y="24.81" width="0.48" height="8.05"/><rect class="cls-94" x="207.62" y="24.81" width="0.48" height="8.05"/><rect class="cls-95" x="208.1" y="24.81" width="0.48" height="8.05"/><rect class="cls-96" x="208.58" y="24.81" width="0.48" height="8.05"/><rect class="cls-97" x="209.06" y="24.81" width="0.48" height="8.05"/><rect class="cls-98" x="209.55" y="24.81" width="0.48" height="8.05"/><rect class="cls-99" x="210.03" y="24.81" width="0.48" height="8.05"/><rect class="cls-100" x="210.51" y="24.81" width="0.48" height="8.05"/><rect class="cls-29" x="210.99" y="24.81" width="0.48" height="8.05"/><rect class="cls-30" x="211.47" y="24.81" width="0.48" height="8.05"/><rect class="cls-101" x="211.95" y="24.81" width="0.48" height="8.05"/><rect class="cls-102" x="212.43" y="24.81" width="0.48" height="8.05"/><rect class="cls-103" x="212.91" y="24.81" width="0.48" height="8.05"/><rect class="cls-104" x="213.39" y="24.81" width="0.48" height="8.05"/><rect class="cls-105" x="213.87" y="24.81" width="0.48" height="8.05"/><rect class="cls-106" x="214.35" y="24.81" width="0.48" height="8.05"/><rect class="cls-107" x="214.83" y="24.81" width="0.48" height="8.05"/><rect class="cls-108" x="215.32" y="24.81" width="0.48" height="8.05"/><rect class="cls-109" x="215.8" y="24.81" width="0.48" height="8.05"/><rect class="cls-110" x="216.28" y="24.81" width="0.48" height="8.05"/><rect class="cls-111" x="216.76" y="24.81" width="0.48" height="8.05"/><rect class="cls-112" x="217.24" y="24.81" width="0.48" height="8.05"/><rect class="cls-113" x="217.72" y="24.81" width="0.48" height="8.05"/><rect class="cls-25" x="218.2" y="24.81" width="0.48" height="8.05"/><rect class="cls-26" x="218.68" y="24.81" width="0.48" height="8.05"/><rect class="cls-27" x="219.16" y="24.81" width="0.48" height="8.05"/><rect class="cls-114" x="219.64" y="24.81" width="0.48" height="8.05"/><rect class="cls-115" x="220.12" y="24.81" width="0.48" height="8.05"/><rect class="cls-116" x="220.61" y="24.81" width="0.48" height="8.05"/><rect class="cls-117" x="221.09" y="24.81" width="0.48" height="8.05"/><rect class="cls-118" x="221.57" y="24.81" width="0.48" height="8.05"/><rect class="cls-119" x="222.05" y="24.81" width="0.48" height="8.05"/><rect class="cls-120" x="222.53" y="24.81" width="0.48" height="8.05"/><rect class="cls-121" x="223.01" y="24.81" width="0.48" height="8.05"/><rect class="cls-122" x="223.49" y="24.81" width="0.48" height="8.05"/><rect class="cls-123" x="223.97" y="24.81" width="0.48" height="8.05"/><rect class="cls-124" x="224.45" y="24.81" width="0.48" height="8.05"/><rect class="cls-125" x="224.93" y="24.81" width="0.48" height="8.05"/><rect class="cls-126" x="225.41" y="24.81" width="0.48" height="8.05"/><rect class="cls-32" x="225.9" y="24.81" width="0.48" height="8.05"/><rect class="cls-33" x="226.38" y="24.81" width="0.48" height="8.05"/><rect class="cls-127" x="226.86" y="24.81" width="0.48" height="8.05"/><rect class="cls-128" x="227.34" y="24.81" width="0.48" height="8.05"/><rect class="cls-129" x="227.82" y="24.81" width="0.48" height="8.05"/><rect class="cls-129" x="228.3" y="24.81" width="0.04" height="8.05"/></g><g class="cls-130"><rect class="cls-44" x="180.94" y="28.69" width="0.06" height="1.69"/><rect class="cls-45" x="181" y="28.69" width="0.32" height="1.69"/><rect class="cls-46" x="181.33" y="28.69" width="0.32" height="1.69"/><rect class="cls-47" x="181.65" y="28.69" width="0.32" height="1.69"/><rect class="cls-48" x="181.98" y="28.69" width="0.32" height="1.69"/><rect class="cls-11" x="182.3" y="28.69" width="0.32" height="1.69"/><rect class="cls-12" x="182.63" y="28.69" height="1.69"/></g><g class="cls-131"><rect class="cls-61" x="188.65" y="30.66" width="0.08" height="1.69"/><rect class="cls-14" x="188.73" y="30.66" width="0.48" height="1.69"/><rect class="cls-15" x="189.2" y="30.66" width="0.48" height="1.69"/><rect class="cls-16" x="189.68" y="30.66" width="0.48" height="1.69"/><rect class="cls-62" x="190.16" y="30.66" width="0.18" height="1.69"/></g><g class="cls-132"><rect class="cls-18" x="196.35" y="24.81" width="0.05" height="1.69"/><rect class="cls-19" x="196.4" y="24.81" width="0.48" height="1.69"/><rect class="cls-75" x="196.88" y="24.81" width="0.48" height="1.69"/><rect class="cls-76" x="197.35" y="24.81" width="0.48" height="1.69"/><rect class="cls-77" x="197.83" y="24.81" width="0.21" height="1.69"/></g><g class="cls-133"><rect class="cls-21" x="204.06" y="24.81" width="0.06" height="1.69"/><rect class="cls-22" x="204.12" y="24.81" width="0.48" height="1.69"/><rect class="cls-23" x="204.59" y="24.81" width="0.48" height="1.69"/><rect class="cls-88" x="205.07" y="24.81" width="0.48" height="1.69"/><rect class="cls-89" x="205.54" y="24.81" width="0.2" height="1.69"/></g><g class="cls-134"><rect class="cls-30" x="211.76" y="29.82" width="0.3" height="1.69"/><rect class="cls-101" x="212.06" y="29.82" width="0.48" height="1.69"/><rect class="cls-102" x="212.54" y="29.82" width="0.48" height="1.69"/><rect class="cls-103" x="213.02" y="29.82" width="0.43" height="1.69"/></g><g class="cls-135"><rect class="cls-27" x="219.46" y="27.42" width="0.36" height="1.69"/><rect class="cls-114" x="219.82" y="27.42" width="0.48" height="1.69"/><rect class="cls-115" x="220.3" y="27.42" width="0.48" height="1.69"/><rect class="cls-116" x="220.78" y="27.42" width="0.38" height="1.69"/></g><g class="cls-136"><rect class="cls-33" x="227.11" y="30.24" width="0.03" height="1.69"/><rect class="cls-127" x="227.15" y="30.24" width="0.48" height="1.69"/><rect class="cls-128" x="227.62" y="30.24" width="0.48" height="1.69"/><rect class="cls-129" x="228.1" y="30.24" width="0.48" height="1.69"/><rect class="cls-129" x="228.58" y="30.24" width="0.23" height="1.69"/></g><path class="cls-4" d="M97.8,17.35l0,0h0l-.06,0-.07-.05-.1,0-.14,0-.12,0a.19.19,0,0,0-.09.05.2.2,0,0,0-.06.07.28.28,0,0,0,0,.09.18.18,0,0,0,0,.11l.1.07.13.06.16.05.16.06.13.09a.71.71,0,0,1,.1.14.54.54,0,0,1,0,.19.59.59,0,0,1,0,.23.52.52,0,0,1-.12.19.53.53,0,0,1-.2.13.76.76,0,0,1-.27.05l-.18,0L97,18.8l-.14-.08-.13-.1.1-.16,0,0h0l.07,0,.09.05a.39.39,0,0,0,.11.06.43.43,0,0,0,.17,0,.36.36,0,0,0,.22-.07.23.23,0,0,0,.08-.2.21.21,0,0,0,0-.12l-.1-.07-.13-.06-.16,0L97,18a.71.71,0,0,1-.14-.1.34.34,0,0,1-.09-.14.46.46,0,0,1,0-.21.5.5,0,0,1,.16-.36A.57.57,0,0,1,97.1,17a.71.71,0,0,1,.26,0,.73.73,0,0,1,.3.05.59.59,0,0,1,.23.14Z"/><path class="cls-4" d="M98.41,18.24a.47.47,0,0,0,0,.17.35.35,0,0,0,.07.12l.11.07a.34.34,0,0,0,.14,0h.13l.1,0,.07,0a.07.07,0,0,1,.06,0,.06.06,0,0,1,.06,0l.09.11a.38.38,0,0,1-.12.1l-.13.07-.14,0h-.15a.69.69,0,0,1-.25,0,.53.53,0,0,1-.2-.13.69.69,0,0,1-.14-.22.94.94,0,0,1,0-.3.7.7,0,0,1,0-.25.72.72,0,0,1,.12-.21.58.58,0,0,1,.2-.13.53.53,0,0,1,.26,0,.51.51,0,0,1,.22,0,.42.42,0,0,1,.18.11.52.52,0,0,1,.12.19.62.62,0,0,1,0,.25.22.22,0,0,1,0,.09.06.06,0,0,1-.06,0Zm.59-.19a.49.49,0,0,0,0-.12.47.47,0,0,0-.06-.09.27.27,0,0,0-.08-.07l-.13,0a.29.29,0,0,0-.21.08.41.41,0,0,0-.1.22Z"/><path class="cls-4" d="M100.65,17v1.89h-.2a.07.07,0,0,1-.07-.06l0-.13a.65.65,0,0,1-.18.15.47.47,0,0,1-.24.05.41.41,0,0,1-.19,0,.48.48,0,0,1-.16-.13.51.51,0,0,1-.09-.21.79.79,0,0,1,0-.28.77.77,0,0,1,0-.27.7.7,0,0,1,.11-.21.65.65,0,0,1,.18-.15.56.56,0,0,1,.23-.05.34.34,0,0,1,.18,0,.34.34,0,0,1,.14.09V17Zm-.32.92a.19.19,0,0,0-.11-.09.32.32,0,0,0-.14,0,.31.31,0,0,0-.13,0,.17.17,0,0,0-.09.08.26.26,0,0,0-.06.13.6.6,0,0,0,0,.2.92.92,0,0,0,0,.19.32.32,0,0,0,0,.13.18.18,0,0,0,.09.07.2.2,0,0,0,.11,0,.38.38,0,0,0,.16,0,.49.49,0,0,0,.13-.12Z"/><path class="cls-4" d="M102.7,17v1.89h-.19a.08.08,0,0,1-.08-.06l0-.13a.65.65,0,0,1-.18.15.47.47,0,0,1-.24.05.41.41,0,0,1-.19,0,.37.37,0,0,1-.15-.13.41.41,0,0,1-.1-.21.79.79,0,0,1,0-.28,1.1,1.1,0,0,1,0-.27,1,1,0,0,1,.11-.21.65.65,0,0,1,.18-.15.59.59,0,0,1,.23-.05.38.38,0,0,1,.19,0,.55.55,0,0,1,.14.09V17Zm-.31.92a.24.24,0,0,0-.12-.09.32.32,0,0,0-.14,0,.24.24,0,0,0-.12,0,.19.19,0,0,0-.1.08.26.26,0,0,0-.06.13.62.62,0,0,0,0,.2,1,1,0,0,0,0,.19.32.32,0,0,0,.06.13.13.13,0,0,0,.08.07.2.2,0,0,0,.11,0,.43.43,0,0,0,.17,0l.13-.12Z"/><path class="cls-4" d="M103.37,17.17a.15.15,0,0,1,0,.07.18.18,0,0,1,0,.07l-.06,0h-.16l-.06,0a.16.16,0,0,1,0-.07.14.14,0,0,1,0-.07.19.19,0,0,1,0-.08s0-.05,0-.06l.06-.05h.16a.43.43,0,0,1,.11.11A.19.19,0,0,1,103.37,17.17Zm0,.38v1.3H103v-1.3Z"/><path class="cls-4" d="M103.62,17.73a.76.76,0,0,1,.54-.21.65.65,0,0,1,.2,0,.4.4,0,0,1,.15.1.39.39,0,0,1,.1.16.66.66,0,0,1,0,.21v.82h-.14l-.07,0a.11.11,0,0,1,0,0l0-.1-.09.08a.33.33,0,0,1-.1.06.35.35,0,0,1-.11,0l-.12,0a.41.41,0,0,1-.16,0,.34.34,0,0,1-.12-.06.26.26,0,0,1-.07-.11.41.41,0,0,1,0-.16.28.28,0,0,1,0-.09.33.33,0,0,1,.06-.1.36.36,0,0,1,.09-.08.52.52,0,0,1,.15-.07l.2-.05.27,0V18a.28.28,0,0,0-.06-.2.21.21,0,0,0-.16-.06l-.13,0-.08,0-.07,0h-.13s0,0,0,0Zm.72.56-.23,0-.15.05-.08.06a.11.11,0,0,0,0,.08.13.13,0,0,0,0,.12.21.21,0,0,0,.12,0,.43.43,0,0,0,.17,0,.67.67,0,0,0,.14-.11Z"/><path class="cls-4" d="M104.93,18.85v-1.3h.2a.09.09,0,0,1,.08.05l0,.1a.23.23,0,0,1,.07-.07l.08-.05.09,0h.11a.34.34,0,0,1,.2.06.57.57,0,0,1,.12.18.41.41,0,0,1,.07-.11l.1-.08.12,0h.12a.54.54,0,0,1,.19,0,.28.28,0,0,1,.14.1.38.38,0,0,1,.09.15.66.66,0,0,1,0,.21v.83h-.31V18a.27.27,0,0,0-.06-.19.2.2,0,0,0-.16-.06l-.09,0-.07,0a.22.22,0,0,0,0,.08.37.37,0,0,0,0,.11v.83h-.32V18a.31.31,0,0,0,0-.19.21.21,0,0,0-.16-.06.27.27,0,0,0-.12,0l-.11.09v1Z"/><path class="cls-5" d="M98,38.46v.09h-.82v-.09h.36V37.17s0-.05,0-.08l-.35.31s0,0,0,0h0l0,0,.46-.4h.08v1.51Z"/><path class="cls-5" d="M99.44,37.75a1.25,1.25,0,0,1,0,.36.89.89,0,0,1-.12.26.49.49,0,0,1-.18.14.46.46,0,0,1-.23.05.44.44,0,0,1-.22-.05.49.49,0,0,1-.18-.14.89.89,0,0,1-.12-.26,1.64,1.64,0,0,1,0-.72.89.89,0,0,1,.12-.26.49.49,0,0,1,.18-.14.44.44,0,0,1,.22-.05.46.46,0,0,1,.23.05.49.49,0,0,1,.18.14.89.89,0,0,1,.12.26A1.25,1.25,0,0,1,99.44,37.75Zm-.12,0a1.55,1.55,0,0,0,0-.33,1,1,0,0,0-.1-.23.35.35,0,0,0-.15-.12.34.34,0,0,0-.18,0,.35.35,0,0,0-.17,0,.42.42,0,0,0-.15.12,1,1,0,0,0-.1.23,1.83,1.83,0,0,0,0,.66,1,1,0,0,0,.1.23.42.42,0,0,0,.15.12.35.35,0,0,0,.17,0,.34.34,0,0,0,.18,0,.35.35,0,0,0,.15-.12,1,1,0,0,0,.1-.23A1.55,1.55,0,0,0,99.32,37.75Z"/><path class="cls-5" d="M98,32h0l0,0v.06H97V32l0,0,.54-.55a1.59,1.59,0,0,0,.13-.13.64.64,0,0,0,.1-.13.38.38,0,0,0,.06-.13.4.4,0,0,0,0-.15.33.33,0,0,0,0-.15.44.44,0,0,0-.08-.11l-.11-.06-.13,0-.14,0-.12.07-.08.1a.42.42,0,0,0,0,.12s0,0,0,0h-.09a.78.78,0,0,1,0-.18.49.49,0,0,1,.44-.25.47.47,0,0,1,.17,0,.28.28,0,0,1,.15.08.32.32,0,0,1,.1.13.38.38,0,0,1,0,.19.47.47,0,0,1,0,.17.61.61,0,0,1-.07.14,1.71,1.71,0,0,1-.11.14l-.14.14-.49.51.07,0H98Z"/><path class="cls-5" d="M99.44,31.3a1.38,1.38,0,0,1,0,.37.83.83,0,0,1-.12.25.43.43,0,0,1-.18.15.59.59,0,0,1-.23,0,.59.59,0,0,1-.22,0,.43.43,0,0,1-.18-.15.83.83,0,0,1-.12-.25,1.4,1.4,0,0,1,0-.37,1.28,1.28,0,0,1,0-.36.73.73,0,0,1,.12-.25.43.43,0,0,1,.18-.15.59.59,0,0,1,.22-.05.59.59,0,0,1,.23.05.43.43,0,0,1,.18.15.73.73,0,0,1,.12.25A1.25,1.25,0,0,1,99.44,31.3Zm-.12,0a1.55,1.55,0,0,0,0-.33.9.9,0,0,0-.1-.22.37.37,0,0,0-.15-.13.34.34,0,0,0-.18,0,.35.35,0,0,0-.17,0,.45.45,0,0,0-.15.13.9.9,0,0,0-.1.22,1.55,1.55,0,0,0,0,.33,1.72,1.72,0,0,0,0,.34.9.9,0,0,0,.1.22.45.45,0,0,0,.15.13.53.53,0,0,0,.17,0A.48.48,0,0,0,99,32a.37.37,0,0,0,.15-.13.9.9,0,0,0,.1-.22A1.72,1.72,0,0,0,99.32,31.3Z"/><path class="cls-5" d="M97.08,24.48a.6.6,0,0,1,.06-.19.45.45,0,0,1,.11-.13.42.42,0,0,1,.14-.09l.19,0a.5.5,0,0,1,.17,0,.39.39,0,0,1,.14.08.4.4,0,0,1,.1.12.48.48,0,0,1,0,.18.32.32,0,0,1,0,.14.41.41,0,0,1-.07.11.34.34,0,0,1-.09.08l-.13,0A.38.38,0,0,1,98,25a.42.42,0,0,1,0,.44.36.36,0,0,1-.1.14.54.54,0,0,1-.16.1.76.76,0,0,1-.21,0,.69.69,0,0,1-.22,0,.44.44,0,0,1-.15-.1.38.38,0,0,1-.09-.13,1.47,1.47,0,0,1-.06-.14l0,0h0s0,0,0,0,0,0,0,0a.25.25,0,0,0,0,.07l0,.07.07.06a.22.22,0,0,0,.11,0,.32.32,0,0,0,.14,0,.48.48,0,0,0,.18,0,.27.27,0,0,0,.12-.09.21.21,0,0,0,.08-.11.35.35,0,0,0,0-.13.35.35,0,0,0,0-.14.23.23,0,0,0-.07-.1.53.53,0,0,0-.15-.08l-.21,0V24.8a.48.48,0,0,0,.18,0,.27.27,0,0,0,.13-.07.25.25,0,0,0,.08-.1.34.34,0,0,0,0-.28.2.2,0,0,0-.08-.1.2.2,0,0,0-.11-.06.27.27,0,0,0-.13,0,.34.34,0,0,0-.14,0l-.11.06a.39.39,0,0,0-.08.1.5.5,0,0,0,0,.13s0,0,0,0h-.09Z"/><path class="cls-5" d="M99.44,24.86a1.25,1.25,0,0,1,0,.36.73.73,0,0,1-.12.25.43.43,0,0,1-.18.15.46.46,0,0,1-.23.05.44.44,0,0,1-.22-.05.43.43,0,0,1-.18-.15.73.73,0,0,1-.12-.25,1.64,1.64,0,0,1,0-.72.89.89,0,0,1,.12-.26.65.65,0,0,1,.18-.15.57.57,0,0,1,.22,0,.59.59,0,0,1,.23,0,.65.65,0,0,1,.18.15.89.89,0,0,1,.12.26A1.25,1.25,0,0,1,99.44,24.86Zm-.12,0a1.55,1.55,0,0,0,0-.33,1,1,0,0,0-.1-.23.35.35,0,0,0-.15-.12.34.34,0,0,0-.18,0,.35.35,0,0,0-.17,0,.42.42,0,0,0-.15.12,1,1,0,0,0-.1.23,1.83,1.83,0,0,0,0,.66,1,1,0,0,0,.1.23.42.42,0,0,0,.15.12.35.35,0,0,0,.17,0,.34.34,0,0,0,.18,0,.35.35,0,0,0,.15-.12,1,1,0,0,0,.1-.23A1.55,1.55,0,0,0,99.32,24.86Z"/><path class="cls-5" d="M103,41.13a1.07,1.07,0,0,1,0,.37.89.89,0,0,1-.12.26.53.53,0,0,1-.19.15.6.6,0,0,1-.24.05.69.69,0,0,1-.24-.05.43.43,0,0,1-.18-.15.71.71,0,0,1-.13-.26,1.4,1.4,0,0,1,0-.37,1.35,1.35,0,0,1,0-.37.64.64,0,0,1,.13-.26.43.43,0,0,1,.18-.15.52.52,0,0,1,.24-.05.47.47,0,0,1,.24.05.53.53,0,0,1,.19.15.79.79,0,0,1,.12.26A1,1,0,0,1,103,41.13Zm-.29,0a2.07,2.07,0,0,0,0-.29.69.69,0,0,0-.07-.19.21.21,0,0,0-.1-.09l-.12,0a.2.2,0,0,0-.11,0,.21.21,0,0,0-.1.09.69.69,0,0,0-.07.19,1.12,1.12,0,0,0,0,.29,1.17,1.17,0,0,0,0,.29.69.69,0,0,0,.07.19.28.28,0,0,0,.1.09.2.2,0,0,0,.11,0l.12,0a.28.28,0,0,0,.1-.09.69.69,0,0,0,.07-.19A2.19,2.19,0,0,0,102.73,41.13Z"/><path class="cls-5" d="M110.32,41.73v.21h-.9v-.21h.33V40.67l-.23.2h-.08l0,0h0l-.09-.12.5-.43H110v1.42Z"/><path class="cls-5" d="M117.93,41.68a.11.11,0,0,1,.07,0,.14.14,0,0,1,0,.07v.16h-1.11v-.09a.13.13,0,0,1,0-.06.1.1,0,0,1,0,0l.49-.5.11-.12.08-.11a.61.61,0,0,0,0-.12.5.5,0,0,0,0-.12.3.3,0,0,0,0-.1.14.14,0,0,0,0-.08l-.07,0-.1,0h-.09l-.07,0-.06.06,0,.08s0,.06,0,.07h-.09l-.15,0a1,1,0,0,1,.07-.21.41.41,0,0,1,.12-.14.46.46,0,0,1,.17-.09.68.68,0,0,1,.4,0,.35.35,0,0,1,.16.09.42.42,0,0,1,.11.15.58.58,0,0,1,0,.19.47.47,0,0,1,0,.17.61.61,0,0,1-.07.14.76.76,0,0,1-.11.14l-.12.13-.37.38.11,0h.52Z"/><path class="cls-5" d="M124.61,40.77a.65.65,0,0,1,.06-.21.41.41,0,0,1,.12-.14.56.56,0,0,1,.17-.09.64.64,0,0,1,.2,0,.6.6,0,0,1,.2,0,.35.35,0,0,1,.16.09.64.64,0,0,1,.1.13.47.47,0,0,1,0,.17.27.27,0,0,1,0,.13.22.22,0,0,1,0,.11.19.19,0,0,1-.08.07l-.11,0a.44.44,0,0,1,.22.14.38.38,0,0,1,.07.24.46.46,0,0,1,0,.21.4.4,0,0,1-.12.16.52.52,0,0,1-.18.1.76.76,0,0,1-.21,0,.73.73,0,0,1-.22,0,.36.36,0,0,1-.15-.08.41.41,0,0,1-.12-.14.75.75,0,0,1-.08-.18l.12-.05a.1.1,0,0,1,.09,0,.07.07,0,0,1,.06,0,.56.56,0,0,0,0,.08.13.13,0,0,0,.06.07.18.18,0,0,0,.07.05l.11,0a.28.28,0,0,0,.13,0l.09-.06a.22.22,0,0,0,0-.08.29.29,0,0,0,0-.09.36.36,0,0,0,0-.11.1.1,0,0,0,0-.08.23.23,0,0,0-.11-.05.59.59,0,0,0-.2,0V41l.17,0a.28.28,0,0,0,.11-.05.14.14,0,0,0,0-.08.15.15,0,0,0,0-.09.24.24,0,0,0-.06-.18.25.25,0,0,0-.17-.06h-.1l-.07,0-.06.06,0,.08a.13.13,0,0,1,0,.07h-.09Z"/><path class="cls-5" d="M133.4,41.33v.16l0,0h-.19v.4H133v-.4h-.73a.05.05,0,0,1,0-.05l0-.14.77-1h.26v1Zm-.45,0V40.8a1,1,0,0,1,0-.17l-.5.7Z"/><path class="cls-5" d="M140.27,40.91l.11,0h.09a.79.79,0,0,1,.23,0,.46.46,0,0,1,.16.11.34.34,0,0,1,.1.16.41.41,0,0,1,0,.19.6.6,0,0,1-.05.24.57.57,0,0,1-.12.18.67.67,0,0,1-.2.12.61.61,0,0,1-.24,0,.32.32,0,0,1-.14,0l-.13,0-.11-.06a.35.35,0,0,1-.09-.07l.08-.12a.08.08,0,0,1,.07,0l.06,0,.07,0,.08,0,.13,0a.28.28,0,0,0,.13,0,.23.23,0,0,0,.1-.07.33.33,0,0,0,.06-.1.59.59,0,0,0,0-.14.28.28,0,0,0-.08-.2.32.32,0,0,0-.23-.08,1,1,0,0,0-.23,0l-.18,0,.14-.79h.8v.11a.13.13,0,0,1,0,.1.17.17,0,0,1-.12,0h-.45Z"/><path class="cls-5" d="M148.07,40.91,148,41l.1,0h.12a.57.57,0,0,1,.18,0,.51.51,0,0,1,.16.09.4.4,0,0,1,.1.15.46.46,0,0,1,0,.21.54.54,0,0,1,0,.22.66.66,0,0,1-.12.17.57.57,0,0,1-.18.12.59.59,0,0,1-.23,0,.61.61,0,0,1-.24,0,.66.66,0,0,1-.17-.12.57.57,0,0,1-.12-.18.85.85,0,0,1,0-.23.67.67,0,0,1,0-.24,1,1,0,0,1,.15-.25l.39-.52s0,0,.05-.05h.34Zm.06.82a.22.22,0,0,0,.12,0,.33.33,0,0,0,.1-.06.21.21,0,0,0,.06-.1.22.22,0,0,0,0-.12.25.25,0,0,0,0-.12.21.21,0,0,0-.06-.1l-.09-.06-.12,0a.21.21,0,0,0-.12,0,.21.21,0,0,0-.1.06l-.06.09a.5.5,0,0,0,0,.12.37.37,0,0,0,0,.12.21.21,0,0,0,.06.1.15.15,0,0,0,.09.06A.23.23,0,0,0,148.13,41.73Z"/><path class="cls-5" d="M156.38,40.32v.12a.19.19,0,0,1,0,.08.14.14,0,0,1,0,.06l-.61,1.27-.06.07-.09,0h-.2L156,40.7a.16.16,0,0,1,0-.07l0-.06h-.77l0,0a.08.08,0,0,1,0,0v-.18Z"/><path class="cls-6" d="M156,31.58H102.43a.09.09,0,0,1-.08-.08.08.08,0,0,1,.08-.07H156a.07.07,0,0,1,.07.07A.08.08,0,0,1,156,31.58Z"/><path class="cls-6" d="M156,25.1H102.43a.07.07,0,1,1,0-.14H156a.07.07,0,0,1,0,.14Z"/><path class="cls-6" d="M156,38.05H102.43a.07.07,0,1,1,0-.14H156a.07.07,0,0,1,0,.14Z"/><g class="cls-137"><rect class="cls-8" x="101.74" y="37.64" width="0.48" height="0.69"/><rect class="cls-9" x="102.22" y="37.64" width="0.21" height="0.69"/></g><g class="cls-138"><rect class="cls-11" x="109.44" y="37.64" width="0.24" height="0.69"/><rect class="cls-12" x="109.68" y="37.64" width="0.45" height="0.69"/></g><g class="cls-139"><rect class="cls-14" x="117.15" y="37.64" height="0.69"/><rect class="cls-15" x="117.15" y="37.64" width="0.5" height="0.69"/><rect class="cls-16" x="117.64" y="37.64" width="0.19" height="0.69"/></g><g class="cls-140"><rect class="cls-18" x="124.85" y="37.64" width="0.26" height="0.69"/><rect class="cls-19" x="125.11" y="37.64" width="0.43" height="0.69"/></g><g class="cls-141"><rect class="cls-21" x="132.56" y="37.64" width="0.02" height="0.69"/><rect class="cls-22" x="132.57" y="37.64" width="0.5" height="0.69"/><rect class="cls-23" x="133.07" y="37.64" width="0.17" height="0.69"/></g><g class="cls-142"><rect class="cls-25" x="147.96" y="37.64" width="0.03" height="0.69"/><rect class="cls-26" x="148" y="37.64" width="0.5" height="0.69"/><rect class="cls-27" x="148.5" y="37.64" width="0.16" height="0.69"/></g><g class="cls-143"><rect class="cls-29" x="140.26" y="37.64" width="0.27" height="0.69"/><rect class="cls-30" x="140.53" y="37.64" width="0.41" height="0.69"/></g><g class="cls-144"><rect class="cls-32" x="155.67" y="37.64" width="0.29" height="0.69"/><rect class="cls-33" x="155.96" y="37.64" width="0.4" height="0.69"/></g><path class="cls-34" d="M105.94,38a.23.23,0,0,1-.23.23.23.23,0,1,1,0-.45A.22.22,0,0,1,105.94,38Z"/><path class="cls-34" d="M113.67,38a.23.23,0,1,1-.45,0,.22.22,0,0,1,.22-.22A.22.22,0,0,1,113.67,38Z"/><path class="cls-34" d="M121.4,38a.23.23,0,1,1-.22-.22A.22.22,0,0,1,121.4,38Z"/><path class="cls-34" d="M129.14,38a.23.23,0,1,1-.45,0,.22.22,0,0,1,.22-.22A.22.22,0,0,1,129.14,38Z"/><path class="cls-34" d="M136.87,38a.23.23,0,1,1-.45,0,.22.22,0,0,1,.22-.22A.22.22,0,0,1,136.87,38Z"/><path class="cls-34" d="M144.6,38a.23.23,0,1,1-.22-.22A.22.22,0,0,1,144.6,38Z"/><path class="cls-34" d="M152.34,38a.23.23,0,1,1-.45,0,.22.22,0,0,1,.22-.22A.22.22,0,0,1,152.34,38Z"/><g class="cls-145"><rect class="cls-8" x="101.92" y="24.81" width="0.04" height="8.05"/><rect class="cls-8" x="101.96" y="24.81" width="0.48" height="8.05"/><rect class="cls-9" x="102.44" y="24.81" width="0.48" height="8.05"/><rect class="cls-36" x="102.92" y="24.81" width="0.48" height="8.05"/><rect class="cls-37" x="103.4" y="24.81" width="0.48" height="8.05"/><rect class="cls-38" x="103.88" y="24.81" width="0.48" height="8.05"/><rect class="cls-39" x="104.36" y="24.81" width="0.48" height="8.05"/><rect class="cls-40" x="104.84" y="24.81" width="0.48" height="8.05"/><rect class="cls-41" x="105.33" y="24.81" width="0.48" height="8.05"/><rect class="cls-42" x="105.81" y="24.81" width="0.48" height="8.05"/><rect class="cls-43" x="106.29" y="24.81" width="0.48" height="8.05"/><rect class="cls-44" x="106.77" y="24.81" width="0.48" height="8.05"/><rect class="cls-45" x="107.25" y="24.81" width="0.48" height="8.05"/><rect class="cls-46" x="107.73" y="24.81" width="0.48" height="8.05"/><rect class="cls-47" x="108.21" y="24.81" width="0.48" height="8.05"/><rect class="cls-48" x="108.69" y="24.81" width="0.48" height="8.05"/><rect class="cls-11" x="109.17" y="24.81" width="0.48" height="8.05"/><rect class="cls-12" x="109.65" y="24.81" width="0.48" height="8.05"/><rect class="cls-49" x="110.13" y="24.81" width="0.48" height="8.05"/><rect class="cls-50" x="110.62" y="24.81" width="0.48" height="8.05"/><rect class="cls-51" x="111.1" y="24.81" width="0.48" height="8.05"/><rect class="cls-52" x="111.58" y="24.81" width="0.48" height="8.05"/><rect class="cls-53" x="112.06" y="24.81" width="0.48" height="8.05"/><rect class="cls-54" x="112.54" y="24.81" width="0.48" height="8.05"/><rect class="cls-55" x="113.02" y="24.81" width="0.48" height="8.05"/><rect class="cls-56" x="113.5" y="24.81" width="0.48" height="8.05"/><rect class="cls-57" x="113.98" y="24.81" width="0.48" height="8.05"/><rect class="cls-58" x="114.46" y="24.81" width="0.48" height="8.05"/><rect class="cls-59" x="114.94" y="24.81" width="0.48" height="8.05"/><rect class="cls-60" x="115.42" y="24.81" width="0.48" height="8.05"/><rect class="cls-61" x="115.91" y="24.81" width="0.48" height="8.05"/><rect class="cls-14" x="116.39" y="24.81" width="0.48" height="8.05"/><rect class="cls-15" x="116.87" y="24.81" width="0.48" height="8.05"/><rect class="cls-16" x="117.35" y="24.81" width="0.48" height="8.05"/><rect class="cls-62" x="117.83" y="24.81" width="0.48" height="8.05"/><rect class="cls-63" x="118.31" y="24.81" width="0.48" height="8.05"/><rect class="cls-64" x="118.79" y="24.81" width="0.48" height="8.05"/><rect class="cls-65" x="119.27" y="24.81" width="0.48" height="8.05"/><rect class="cls-66" x="119.75" y="24.81" width="0.48" height="8.05"/><rect class="cls-67" x="120.23" y="24.81" width="0.48" height="8.05"/><rect class="cls-68" x="120.71" y="24.81" width="0.48" height="8.05"/><rect class="cls-69" x="121.2" y="24.81" width="0.48" height="8.05"/><rect class="cls-70" x="121.68" y="24.81" width="0.48" height="8.05"/><rect class="cls-71" x="122.16" y="24.81" width="0.48" height="8.05"/><rect class="cls-72" x="122.64" y="24.81" width="0.48" height="8.05"/><rect class="cls-73" x="123.12" y="24.81" width="0.48" height="8.05"/><rect class="cls-74" x="123.6" y="24.81" width="0.48" height="8.05"/><rect class="cls-18" x="124.08" y="24.81" width="0.48" height="8.05"/><rect class="cls-19" x="124.56" y="24.81" width="0.48" height="8.05"/><rect class="cls-75" x="125.04" y="24.81" width="0.48" height="8.05"/><rect class="cls-76" x="125.52" y="24.81" width="0.48" height="8.05"/><rect class="cls-77" x="126" y="24.81" width="0.48" height="8.05"/><rect class="cls-78" x="126.48" y="24.81" width="0.48" height="8.05"/><rect class="cls-79" x="126.97" y="24.81" width="0.48" height="8.05"/><rect class="cls-80" x="127.45" y="24.81" width="0.48" height="8.05"/><rect class="cls-81" x="127.93" y="24.81" width="0.48" height="8.05"/><rect class="cls-82" x="128.41" y="24.81" width="0.48" height="8.05"/><rect class="cls-83" x="128.89" y="24.81" width="0.48" height="8.05"/><rect class="cls-84" x="129.37" y="24.81" width="0.48" height="8.05"/><rect class="cls-85" x="129.85" y="24.81" width="0.48" height="8.05"/><rect class="cls-86" x="130.33" y="24.81" width="0.48" height="8.05"/><rect class="cls-87" x="130.81" y="24.81" width="0.48" height="8.05"/><rect class="cls-21" x="131.29" y="24.81" width="0.48" height="8.05"/><rect class="cls-22" x="131.77" y="24.81" width="0.48" height="8.05"/><rect class="cls-23" x="132.26" y="24.81" width="0.48" height="8.05"/><rect class="cls-88" x="132.74" y="24.81" width="0.48" height="8.05"/><rect class="cls-89" x="133.22" y="24.81" width="0.48" height="8.05"/><rect class="cls-90" x="133.7" y="24.81" width="0.48" height="8.05"/><rect class="cls-91" x="134.18" y="24.81" width="0.48" height="8.05"/><rect class="cls-92" x="134.66" y="24.81" width="0.48" height="8.05"/><rect class="cls-93" x="135.14" y="24.81" width="0.48" height="8.05"/><rect class="cls-94" x="135.62" y="24.81" width="0.48" height="8.05"/><rect class="cls-95" x="136.1" y="24.81" width="0.48" height="8.05"/><rect class="cls-96" x="136.58" y="24.81" width="0.48" height="8.05"/><rect class="cls-97" x="137.06" y="24.81" width="0.48" height="8.05"/><rect class="cls-98" x="137.55" y="24.81" width="0.48" height="8.05"/><rect class="cls-99" x="138.03" y="24.81" width="0.48" height="8.05"/><rect class="cls-100" x="138.51" y="24.81" width="0.48" height="8.05"/><rect class="cls-29" x="138.99" y="24.81" width="0.48" height="8.05"/><rect class="cls-30" x="139.47" y="24.81" width="0.48" height="8.05"/><rect class="cls-101" x="139.95" y="24.81" width="0.48" height="8.05"/><rect class="cls-102" x="140.43" y="24.81" width="0.48" height="8.05"/><rect class="cls-103" x="140.91" y="24.81" width="0.48" height="8.05"/><rect class="cls-104" x="141.39" y="24.81" width="0.48" height="8.05"/><rect class="cls-105" x="141.87" y="24.81" width="0.48" height="8.05"/><rect class="cls-106" x="142.35" y="24.81" width="0.48" height="8.05"/><rect class="cls-107" x="142.83" y="24.81" width="0.48" height="8.05"/><rect class="cls-108" x="143.32" y="24.81" width="0.48" height="8.05"/><rect class="cls-109" x="143.8" y="24.81" width="0.48" height="8.05"/><rect class="cls-110" x="144.28" y="24.81" width="0.48" height="8.05"/><rect class="cls-111" x="144.76" y="24.81" width="0.48" height="8.05"/><rect class="cls-112" x="145.24" y="24.81" width="0.48" height="8.05"/><rect class="cls-113" x="145.72" y="24.81" width="0.48" height="8.05"/><rect class="cls-25" x="146.2" y="24.81" width="0.48" height="8.05"/><rect class="cls-26" x="146.68" y="24.81" width="0.48" height="8.05"/><rect class="cls-27" x="147.16" y="24.81" width="0.48" height="8.05"/><rect class="cls-114" x="147.64" y="24.81" width="0.48" height="8.05"/><rect class="cls-115" x="148.12" y="24.81" width="0.48" height="8.05"/><rect class="cls-116" x="148.61" y="24.81" width="0.48" height="8.05"/><rect class="cls-117" x="149.09" y="24.81" width="0.48" height="8.05"/><rect class="cls-118" x="149.57" y="24.81" width="0.48" height="8.05"/><rect class="cls-119" x="150.05" y="24.81" width="0.48" height="8.05"/><rect class="cls-120" x="150.53" y="24.81" width="0.48" height="8.05"/><rect class="cls-121" x="151.01" y="24.81" width="0.48" height="8.05"/><rect class="cls-122" x="151.49" y="24.81" width="0.48" height="8.05"/><rect class="cls-123" x="151.97" y="24.81" width="0.48" height="8.05"/><rect class="cls-124" x="152.45" y="24.81" width="0.48" height="8.05"/><rect class="cls-125" x="152.93" y="24.81" width="0.48" height="8.05"/><rect class="cls-126" x="153.41" y="24.81" width="0.48" height="8.05"/><rect class="cls-32" x="153.9" y="24.81" width="0.48" height="8.05"/><rect class="cls-33" x="154.38" y="24.81" width="0.48" height="8.05"/><rect class="cls-127" x="154.86" y="24.81" width="0.48" height="8.05"/><rect class="cls-128" x="155.34" y="24.81" width="0.48" height="8.05"/><rect class="cls-129" x="155.82" y="24.81" width="0.48" height="8.05"/><rect class="cls-129" x="156.3" y="24.81" width="0.04" height="8.05"/></g><g class="cls-146"><rect class="cls-44" x="108.94" y="28.69" width="0.06" height="1.69"/><rect class="cls-45" x="109" y="28.69" width="0.32" height="1.69"/><rect class="cls-46" x="109.33" y="28.69" width="0.32" height="1.69"/><rect class="cls-47" x="109.65" y="28.69" width="0.32" height="1.69"/><rect class="cls-48" x="109.98" y="28.69" width="0.32" height="1.69"/><rect class="cls-11" x="110.3" y="28.69" width="0.32" height="1.69"/><rect class="cls-12" x="110.63" y="28.69" height="1.69"/></g><g class="cls-147"><rect class="cls-61" x="116.65" y="30.66" width="0.08" height="1.69"/><rect class="cls-14" x="116.73" y="30.66" width="0.48" height="1.69"/><rect class="cls-15" x="117.2" y="30.66" width="0.48" height="1.69"/><rect class="cls-16" x="117.68" y="30.66" width="0.48" height="1.69"/><rect class="cls-62" x="118.16" y="30.66" width="0.18" height="1.69"/></g><g class="cls-148"><rect class="cls-18" x="124.35" y="24.81" width="0.05" height="1.69"/><rect class="cls-19" x="124.4" y="24.81" width="0.48" height="1.69"/><rect class="cls-75" x="124.88" y="24.81" width="0.48" height="1.69"/><rect class="cls-76" x="125.35" y="24.81" width="0.48" height="1.69"/><rect class="cls-77" x="125.83" y="24.81" width="0.21" height="1.69"/></g><g class="cls-149"><rect class="cls-21" x="132.06" y="24.81" width="0.06" height="1.69"/><rect class="cls-22" x="132.12" y="24.81" width="0.48" height="1.69"/><rect class="cls-23" x="132.59" y="24.81" width="0.48" height="1.69"/><rect class="cls-88" x="133.07" y="24.81" width="0.48" height="1.69"/><rect class="cls-89" x="133.54" y="24.81" width="0.2" height="1.69"/></g><g class="cls-150"><rect class="cls-30" x="139.76" y="29.82" width="0.3" height="1.69"/><rect class="cls-101" x="140.06" y="29.82" width="0.48" height="1.69"/><rect class="cls-102" x="140.54" y="29.82" width="0.48" height="1.69"/><rect class="cls-103" x="141.02" y="29.82" width="0.43" height="1.69"/></g><g class="cls-151"><rect class="cls-27" x="147.46" y="27.42" width="0.36" height="1.69"/><rect class="cls-114" x="147.82" y="27.42" width="0.48" height="1.69"/><rect class="cls-115" x="148.3" y="27.42" width="0.48" height="1.69"/><rect class="cls-116" x="148.78" y="27.42" width="0.38" height="1.69"/></g><g class="cls-152"><rect class="cls-33" x="155.11" y="30.24" width="0.03" height="1.69"/><rect class="cls-127" x="155.15" y="30.24" width="0.48" height="1.69"/><rect class="cls-128" x="155.62" y="30.24" width="0.48" height="1.69"/><rect class="cls-129" x="156.1" y="30.24" width="0.48" height="1.69"/><rect class="cls-129" x="156.58" y="30.24" width="0.23" height="1.69"/></g><path d="M31.67,27.58c0,2.32-2,3.91-4.86,3.91S22,29.92,22,27.58a3.2,3.2,0,0,1,1.63-2.87,3.15,3.15,0,0,1-1.29-2.52c0-2.12,1.81-3.57,4.52-3.57s4.51,1.44,4.51,3.57A3.11,3.11,0,0,1,30,24.71,3.23,3.23,0,0,1,31.67,27.58Zm-3.21-.1A1.48,1.48,0,0,0,26.82,26a1.47,1.47,0,1,0,0,2.92A1.48,1.48,0,0,0,28.46,27.48Zm-3.05-5.19a1.27,1.27,0,0,0,1.41,1.22,1.24,1.24,0,1,0,0-2.45A1.28,1.28,0,0,0,25.41,22.29Z"/><path d="M42,28.3v2.91H32.87v-.75c4.94-5.83,5.62-6.77,5.62-7.82a1,1,0,0,0-1.07-1.11,1.07,1.07,0,0,0-1.11,1.2V23H33.06v-.23c0-2.48,1.63-4.12,4.32-4.12s4.4,1.6,4.4,3.9c0,1.55-.57,2.73-3.2,5.78Z"/><path class="cls-153" d="M24.77,39.93H23.59v3.28H22.38V39.93H21.2V38.85h3.57Z"/><path class="cls-153" d="M24.57,41.53a1.89,1.89,0,1,1,1.89,1.79A1.78,1.78,0,0,1,24.57,41.53Zm2.61,0a.71.71,0,0,0-.72-.75.75.75,0,0,0,0,1.5A.71.71,0,0,0,27.18,41.53Z"/><path class="cls-153" d="M31.1,42.2v1h-.8A1.1,1.1,0,0,1,29.11,42V40.74h-.62v-.27L30,38.87h.23v1h.85v.89h-.82v1.07a.36.36,0,0,0,.39.39Z"/><path class="cls-153" d="M35.18,39.85v3.36h-.89l-.1-.24a1.61,1.61,0,0,1-1,.35,1.79,1.79,0,0,1,0-3.58,1.57,1.57,0,0,1,1,.37l.12-.26Zm-1.1,1.68a.75.75,0,1,0-.75.77A.74.74,0,0,0,34.08,41.53Z"/><path class="cls-153" d="M35.91,38.63h1.16v4.58H35.91Z"/><path class="cls-153" d="M42.47,41.19v2H41.32V41.32c0-.39-.14-.58-.44-.58s-.57.24-.57.68v1.79H39.15V38.63h1.16v1.44a1.43,1.43,0,0,1,.9-.32A1.27,1.27,0,0,1,42.47,41.19Z"/><path class="cls-153" d="M43,41.53a1.89,1.89,0,1,1,1.88,1.79A1.77,1.77,0,0,1,43,41.53Zm2.61,0a.73.73,0,1,0-.73.75A.71.71,0,0,0,45.58,41.53Z"/><path class="cls-153" d="M47.23,41.77V39.85h1.16v1.87a.5.5,0,1,0,1,0V39.85h1.15v1.92a1.66,1.66,0,0,1-3.31,0Z"/><path class="cls-153" d="M53.42,39.83v1.06H53c-.41,0-.58.18-.58.61v1.71H51.23V39.85H52l.18.37a1.15,1.15,0,0,1,.93-.39Z"/><path class="cls-153" d="M53.66,42.11h1.11a.35.35,0,0,0,.39.36c.17,0,.33-.09.33-.26s-.25-.25-.58-.3c-.52-.09-1.21-.25-1.21-1.06s.58-1.11,1.44-1.11,1.41.45,1.42,1.14H55.48c0-.22-.15-.32-.36-.32s-.31.09-.31.25.26.23.58.29c.53.1,1.24.21,1.24,1.06s-.6,1.16-1.49,1.16S53.67,42.84,53.66,42.11Z"/></svg>