<svg id="Capa_1" data-name="Capa 1" xmlns="http://www.w3.org/2000/svg" xmlns:xlink="http://www.w3.org/1999/xlink" viewBox="0 0 265 109"><defs><style>.cls-1{fill:url(#Degradado_sin_nombre_57);}.cls-2{fill:url(#Degradado_sin_nombre_53);}.cls-3{fill:#fff;}</style><linearGradient id="Degradado_sin_nombre_57" x1="18.12" y1="49.24" x2="246.88" y2="49.24" gradientUnits="userSpaceOnUse"><stop offset="0" stop-color="#6da7fb"/><stop offset="0.13" stop-color="#649df3"/><stop offset="0.35" stop-color="#4c84df"/><stop offset="0.48" stop-color="#3b72d1"/><stop offset="0.81" stop-color="#3160e5"/></linearGradient><linearGradient id="Degradado_sin_nombre_53" x1="212.23" y1="83.58" x2="243.63" y2="83.58" gradientUnits="userSpaceOnUse"><stop offset="0.02" stop-color="#00b924"/><stop offset="0.21" stop-color="#00c31e"/><stop offset="0.53" stop-color="#00dc0d"/><stop offset="0.64" stop-color="#00e706"/></linearGradient></defs><title>cajon-b-02</title><rect class="cls-1" x="18.13" y="9.72" width="228.75" height="79.02" rx="14.22" ry="14.22"/><circle class="cls-2" cx="227.93" cy="83.58" r="15.7"/><path class="cls-3" d="M223,76.07a10.86,10.86,0,0,1,1,.75c.63.59,1.24,1.22,1.85,1.84a1.21,1.21,0,0,1,0,1.83c-.32.33-.64.65-1,1a.24.24,0,0,0-.06.35,11.12,11.12,0,0,0,5.14,5c.32-.33.65-.69,1-1a1.24,1.24,0,0,1,2,0c.57.58,1.16,1.15,1.72,1.74a11.71,11.71,0,0,1,.76,1V89A3.21,3.21,0,0,1,234,90.51a12.87,12.87,0,0,1-1.5.57h-.64a.25.25,0,0,0-.11,0,10.07,10.07,0,0,1-4.39-1.64,20.29,20.29,0,0,1-4.81-4.48,9.26,9.26,0,0,1-2-3.73c-.05-.24-.11-.49-.16-.73V79.25c0-.11,0-.22.07-.34a3.62,3.62,0,0,1,2.09-2.84Z"/></svg>