<svg id="Capa_1" data-name="Capa 1" xmlns="http://www.w3.org/2000/svg" viewBox="0 0 20 20"><defs><style>.cls-1{fill:#4eae33;}</style></defs><title>check</title><path class="cls-1" d="M4.73,8a.54.54,0,0,1,.4.17L6.84,9.87l1.5,1.51c.07.08.12.08.19,0l2.21-2.22L13,6.93l1.85-1.85a.57.57,0,0,1,.88,0l1.1,1.1a.52.52,0,0,1,0,.79c-.39.41-.79.81-1.19,1.2l-2.4,2.4L10.77,13c-.61.62-1.23,1.23-1.85,1.85a.58.58,0,0,1-1,0L4.22,11.12c-.36-.36-.73-.7-1.07-1.09a.53.53,0,0,1,0-.73c.39-.4.79-.79,1.19-1.18A.47.47,0,0,1,4.73,8Z"/></svg>