<svg id="Capa_1" data-name="Capa 1" xmlns="http://www.w3.org/2000/svg" viewBox="0 0 50 50"><defs><style>.cls-1{fill:#ebe0ee;}.cls-2{fill:#716de5;}.cls-3{fill:#fbb03b;}.cls-4{fill:#fff;}</style></defs><title>iconos-clinics</title><path class="cls-1" d="M40.29,45.77H10.49L12.36,27a2.84,2.84,0,0,1,2.82-2.55h3.68a1.43,1.43,0,0,1,1.25.75l5.28,9.89,5.28-9.89a1.4,1.4,0,0,1,1.25-.75h3.67A2.84,2.84,0,0,1,38.42,27Zm0,0"/><path class="cls-1" d="M31.4,8.88h.37V8.17a3.56,3.56,0,0,0-3.54-3.55H22.55A3.56,3.56,0,0,0,19,8.17v.71Zm0,0"/><path class="cls-2" d="M32.48,8.17a4.25,4.25,0,0,0-4.25-4.26H22.55a4.26,4.26,0,0,0-4.26,4.26v.71a.7.7,0,0,0,.2.49,6.88,6.88,0,0,0-.2,1.64v4.25a7.1,7.1,0,1,0,14.19,0V11a6.41,6.41,0,0,0-.2-1.64.7.7,0,0,0,.2-.49ZM25.39,20.94a5.65,5.65,0,0,1-4.14-1.8l1.14-4.59h6l1.14,4.59a5.61,5.61,0,0,1-4.13,1.8Zm5.67-5.68a5.5,5.5,0,0,1-.47,2.27l-1-3.86a.7.7,0,0,0-.68-.53h-7.1a.71.71,0,0,0-.69.53l-1,3.86a5.51,5.51,0,0,1-.48-2.27V11a5.64,5.64,0,0,1,.18-1.42h11A6.13,6.13,0,0,1,31.06,11ZM19.71,8.17a2.84,2.84,0,0,1,2.84-2.84h5.68a2.84,2.84,0,0,1,2.83,2.84Zm0,0"/><path class="cls-2" d="M39.12,27a3.54,3.54,0,0,0-3.53-3.19H31.92A2.12,2.12,0,0,0,30,24.91l-4.65,8.72-4.65-8.72a2.12,2.12,0,0,0-1.88-1.13H15.18A3.54,3.54,0,0,0,11.65,27L9.78,45.7a.74.74,0,0,0,.18.55.72.72,0,0,0,.53.23h29.8a.68.68,0,0,0,.52-.23A.74.74,0,0,0,41,45.7ZM11.27,45.06l1.79-18a2.13,2.13,0,0,1,2.12-1.91h3.68a.7.7,0,0,1,.62.37l5.1,9.55-3.36,6.05a.71.71,0,0,0,.27,1,.64.64,0,0,0,.35.1.72.72,0,0,0,.62-.36L26,35.48h0l5.28-9.89a.7.7,0,0,1,.63-.37h3.67a2.12,2.12,0,0,1,2.12,1.91l1.8,18Zm0,0"/><path class="cls-2" d="M35.32,31.58H31.06a.71.71,0,0,0,0,1.42h4.26a.71.71,0,0,0,0-1.42Zm0,0"/><rect class="cls-3" x="5.5" y="37.06" width="11.83" height="11.03" rx="3.74" ry="3.74"/><rect class="cls-4" x="10.79" y="39.84" width="1.26" height="5.46"/><rect class="cls-4" x="10.79" y="39.84" width="1.26" height="5.46" transform="translate(53.99 31.16) rotate(90)"/></svg>