<svg id="Capa_1" data-name="Capa 1" xmlns="http://www.w3.org/2000/svg" viewBox="0 0 50 50"><defs><style>.cls-1{fill:#ebe0ee;}.cls-2{fill:#bddbff;}.cls-3{fill:#716de5;}</style></defs><title>iconos-clinics</title><path class="cls-1" d="M41.4,35.25a2.74,2.74,0,1,1-2.73-2.73,2.73,2.73,0,0,1,2.73,2.73Zm0,0"/><path class="cls-2" d="M36.62,44.82h4.1l-2-2.74Zm0,0"/><path class="cls-1" d="M30.8,7.58a8.2,8.2,0,0,0-14,5.8V44.82h5.47v-8.2a2.73,2.73,0,1,1,5.46,0v8.2H33.2V13.38a8.21,8.21,0,0,0-2.4-5.8ZM25,7.92a4.78,4.78,0,1,1-3.38,1.4A4.71,4.71,0,0,1,25,7.92Zm5.47,21.86H19.53V23A2.74,2.74,0,0,1,25,23a2.74,2.74,0,0,1,5.47,0Zm0,0"/><path class="cls-1" d="M14.07,35.25a2.74,2.74,0,1,1-2.74-2.73,2.74,2.74,0,0,1,2.74,2.73Zm0,0"/><path class="cls-2" d="M9.28,44.82h4.1l-2.05-2.74Zm0,0"/><path class="cls-3" d="M9.28,15.43H7.92a.69.69,0,0,0-.69.69v1.36a.69.69,0,1,0,1.37,0V16.8h.68a.69.69,0,1,0,0-1.37Zm0,0"/><path class="cls-3" d="M14.07,15.43H12.7a.68.68,0,0,0-.68.69v1.36a.68.68,0,1,0,1.36,0V16.8h.69a.69.69,0,0,0,0-1.37Zm0,0"/><path class="cls-3" d="M9.28,19.53H7.92a.69.69,0,0,0-.69.69v1.36a.69.69,0,1,0,1.37,0V20.9h.68a.69.69,0,1,0,0-1.37Zm0,0"/><path class="cls-3" d="M14.07,19.53H12.7a.68.68,0,0,0-.68.69v1.36a.68.68,0,1,0,1.36,0V20.9h.69a.69.69,0,0,0,0-1.37Zm0,0"/><path class="cls-3" d="M9.28,23.63H7.92a.69.69,0,0,0-.69.69v1.36a.69.69,0,1,0,1.37,0V25h.68a.69.69,0,1,0,0-1.37Zm0,0"/><path class="cls-3" d="M14.07,23.63H12.7a.68.68,0,0,0-.68.69v1.36a.68.68,0,1,0,1.36,0V25h.69a.69.69,0,0,0,0-1.37Zm0,0"/><path class="cls-3" d="M9.28,27.73H7.92a.69.69,0,0,0-.69.69v1.36a.69.69,0,1,0,1.37,0V29.1h.68a.69.69,0,1,0,0-1.37Zm0,0"/><path class="cls-3" d="M35.93,18.17a.69.69,0,0,0,.69-.69V16.8h.68a.69.69,0,0,0,0-1.37H35.93a.69.69,0,0,0-.68.69v1.36a.69.69,0,0,0,.68.69Zm0,0"/><path class="cls-3" d="M40.72,18.17a.69.69,0,0,0,.68-.69V16.8h.68a.69.69,0,1,0,0-1.37H40.72a.69.69,0,0,0-.69.69v1.36a.69.69,0,0,0,.69.69Zm0,0"/><path class="cls-3" d="M35.93,22.27a.69.69,0,0,0,.69-.69V20.9h.68a.69.69,0,0,0,0-1.37H35.93a.69.69,0,0,0-.68.69v1.36a.69.69,0,0,0,.68.69Zm0,0"/><path class="cls-3" d="M40.72,22.27a.69.69,0,0,0,.68-.69V20.9h.68a.69.69,0,1,0,0-1.37H40.72a.69.69,0,0,0-.69.69v1.36a.69.69,0,0,0,.69.69Zm0,0"/><path class="cls-3" d="M35.93,26.37a.69.69,0,0,0,.69-.69V25h.68a.69.69,0,0,0,0-1.37H35.93a.69.69,0,0,0-.68.69v1.36a.69.69,0,0,0,.68.69Zm0,0"/><path class="cls-3" d="M40.72,26.37a.69.69,0,0,0,.68-.69V25h.68a.69.69,0,1,0,0-1.37H40.72a.69.69,0,0,0-.69.69v1.36a.69.69,0,0,0,.69.69Zm0,0"/><path class="cls-3" d="M35.93,30.47a.69.69,0,0,0,.69-.69V29.1h.68a.69.69,0,0,0,0-1.37H35.93a.69.69,0,0,0-.68.69v1.36a.69.69,0,0,0,.68.69Zm0,0"/><path class="cls-3" d="M40.72,30.47a.69.69,0,0,0,.68-.69V29.1h.68a.69.69,0,1,0,0-1.37H40.72a.69.69,0,0,0-.69.69v1.36a.69.69,0,0,0,.69.69Zm0,0"/><path class="cls-3" d="M44.82,12.7h-11a8.88,8.88,0,0,0-17.7,0h-11a.68.68,0,0,0-.68.68V40.72a.69.69,0,0,0,.68.68h5.47v.46L8.74,44.4a.68.68,0,0,0,.54,1.1h4.1a.69.69,0,0,0,.55-1.1L12,41.86V41.4h4.1v3.42a.68.68,0,0,0,.68.68H33.2a.68.68,0,0,0,.68-.68V41.4H38v.46L36.07,44.4a.69.69,0,0,0,.55,1.1h4.1a.68.68,0,0,0,.54-1.1l-1.91-2.54V41.4h5.47a.69.69,0,0,0,.68-.68V13.38a.68.68,0,0,0-.68-.68ZM10.65,44.13l.68-.91.69.91Zm.68-6.83a2.05,2.05,0,0,1-1.45-3.5,2.05,2.05,0,1,1,1.45,3.5ZM16.12,40H12V38.6a3.42,3.42,0,1,0-1.37,0V40H5.87v-26H16.12Zm10.93,4.1H23V36.62a2.05,2.05,0,0,1,4.1,0Zm5.47,0h-4.1V36.62a3.42,3.42,0,0,0-6.84,0v7.51h-4.1V13.38a7.52,7.52,0,0,1,15,0Zm5.46,0,.69-.91.68.91Zm.69-6.83a2.05,2.05,0,1,1,2-2,2.06,2.06,0,0,1-2,2ZM44.13,40H39.35V38.6a3.41,3.41,0,1,0-1.37,0V40h-4.1v-26H44.13Zm0,0"/><path class="cls-3" d="M27.73,19.53A3.42,3.42,0,0,0,25,20.92a3.4,3.4,0,0,0-6.15,2v6.83a.69.69,0,0,0,.68.69H30.47a.69.69,0,0,0,.68-.69V23a3.42,3.42,0,0,0-3.42-3.42ZM24.32,29.1h-4.1V23a2.05,2.05,0,0,1,4.1,0Zm5.46,0h-4.1V23a2.05,2.05,0,0,1,4.1,0Zm0,0"/><path class="cls-3" d="M14.75,28.42a.69.69,0,0,1-.68.68h-.69v.68a.68.68,0,1,1-1.36,0V28.42a.68.68,0,0,1,.68-.69h1.37a.69.69,0,0,1,.68.69Zm0,0"/><path class="cls-3" d="M25,7.23a5.47,5.47,0,1,0,5.47,5.47A5.46,5.46,0,0,0,25,7.23Zm0,9.57a4.1,4.1,0,1,1,4.1-4.1A4.11,4.11,0,0,1,25,16.8Zm0,0"/><path class="cls-3" d="M27.05,11.33v2.74a.69.69,0,0,1-1.37,0v-.69H24.32v.69a.69.69,0,0,1-1.37,0V11.33a.69.69,0,0,1,1.37,0V12h1.36v-.69a.69.69,0,0,1,1.37,0Zm0,0"/></svg>