<svg id="Capa_1" data-name="Capa 1" xmlns="http://www.w3.org/2000/svg" xmlns:xlink="http://www.w3.org/1999/xlink" viewBox="0 0 50 50"><defs><style>.cls-1{fill:none;}.cls-2{fill:#ebe0ee;}.cls-3{clip-path:url(#clip-path);}.cls-4{fill:#716de5;}.cls-5{fill:#fbb03b;}.cls-6{fill:#fff;}</style><clipPath id="clip-path"><rect class="cls-1" x="5.5" y="8.42" width="35.49" height="33.12"/></clipPath></defs><title>iconos-clinics</title><path class="cls-2" d="M39.21,32.66H40.4V31.23a1.2,1.2,0,0,0-.92-1.15L38,29.73v-1.8a9.47,9.47,0,0,0-9.46-9.46H8.46a2.37,2.37,0,0,0-2.37,2.37V31.48H7.27a1.22,1.22,0,0,1,.84.35,1.2,1.2,0,0,1,.34.84V37.4h2.38a3.55,3.55,0,0,1,7.1,0H28a3.55,3.55,0,0,1,7.1,0h4.14a1.21,1.21,0,0,0,1.19-1.19V35H39.21A1.18,1.18,0,0,1,38,33.85a1.2,1.2,0,0,1,1.18-1.19Zm-19.52-6.5h-3v3H14.37v-3h-3V23.79h3V20.84h2.37v2.95h3Zm16,3H26.2V20.84h2.37a7.08,7.08,0,0,1,7.09,7.09Zm0,0"/><path class="cls-2" d="M32.71,37.4a1.19,1.19,0,1,1-1.19-1.19,1.18,1.18,0,0,1,1.19,1.19Zm0,0"/><path class="cls-2" d="M28.57,13.74a2.37,2.37,0,1,0-4.74,0V16.1h4.74Zm0,0"/><g class="cls-3"><path class="cls-2" d="M15.55,37.4a1.18,1.18,0,1,1-1.18-1.19,1.18,1.18,0,0,1,1.18,1.19Zm0,0"/><path class="cls-4" d="M39.63,29.51l-1-.25V27.93a10.06,10.06,0,0,0-10-10H8.46a3,3,0,0,0-3,3V35a3,3,0,0,0,3,3h1.82a4.13,4.13,0,0,0,8.18,0h9a4.14,4.14,0,0,0,8.19,0h3.59A1.8,1.8,0,0,0,41,36.21v-5a1.77,1.77,0,0,0-1.36-1.72ZM7.85,36.69A1.78,1.78,0,0,1,6.68,35v-3h.59a.59.59,0,0,1,.42.17.63.63,0,0,1,.17.42Zm6.52,3.66a3,3,0,1,1,3-3,3,3,0,0,1-3,3Zm17.15,0a3,3,0,1,1,3-3,3,3,0,0,1-3,3Zm8.28-5.91h-.59a.6.6,0,0,1-.59-.59.59.59,0,0,1,.59-.59h.59Zm0-2.37h-.59a1.78,1.78,0,0,0,0,3.55h.59v.59a.58.58,0,0,1-.59.59H35.62a4.14,4.14,0,0,0-8.19,0h-9a4.13,4.13,0,0,0-8.18,0H9V32.67a1.74,1.74,0,0,0-.51-1.26,1.77,1.77,0,0,0-1.26-.52H6.68v-10a1.79,1.79,0,0,1,1.78-1.78H28.57a8.89,8.89,0,0,1,8.87,8.87v1.8a.59.59,0,0,0,.45.57l1.46.35a.6.6,0,0,1,.45.58Zm0,0"/></g><path class="cls-4" d="M28.57,20.24H26.2a.59.59,0,0,0-.59.6v8.28a.59.59,0,0,0,.59.59h9.46a.59.59,0,0,0,.59-.59V27.93a7.7,7.7,0,0,0-7.68-7.69Zm6.5,8.28H26.79V21.43h1.78a6.5,6.5,0,0,1,6.5,6.5Zm0,0"/><path class="cls-4" d="M26.79,32.07h-6.5a.6.6,0,1,0,0,1.19h6.5a.6.6,0,0,0,0-1.19Zm0,0"/><path class="cls-4" d="M14.37,35.62A1.78,1.78,0,1,0,15.05,39a1.78,1.78,0,0,0-.68-3.42Zm0,2.37a.59.59,0,0,1-.54-.37A.57.57,0,0,1,14,37a.6.6,0,0,1,.65-.13A.59.59,0,0,1,14.37,38Zm0,0"/><path class="cls-4" d="M31.52,35.62A1.78,1.78,0,1,0,33.3,37.4a1.78,1.78,0,0,0-1.78-1.78Zm0,2.37a.59.59,0,1,1,.59-.59.59.59,0,0,1-.59.59Zm0,0"/><path class="cls-4" d="M20.29,26.16V23.79a.6.6,0,0,0-.6-.59H17.33V20.84a.6.6,0,0,0-.59-.6H14.37a.6.6,0,0,0-.59.6V23.2H11.41a.6.6,0,0,0-.59.59v2.37a.6.6,0,0,0,.59.59h2.37v2.37a.6.6,0,0,0,.59.59h2.37a.6.6,0,0,0,.59-.59V26.75h2.36a.6.6,0,0,0,.6-.59Zm-1.19-.59H16.74a.58.58,0,0,0-.59.59v2.36H15V26.16a.58.58,0,0,0-.59-.59H12V24.38h2.36a.58.58,0,0,0,.59-.59V21.43h1.19v2.36a.58.58,0,0,0,.59.59H19.1Zm0,0"/><path class="cls-4" d="M29.16,15.51V13.74a3,3,0,1,0-5.92,0v1.77a.6.6,0,0,0,0,1.19h5.92a.6.6,0,0,0,0-1.19Zm-1.19,0H24.43V13.74a1.77,1.77,0,1,1,3.54,0Zm0,0"/><path class="cls-4" d="M21.47,13.11a.6.6,0,0,0,.73-.42A4.11,4.11,0,0,1,23,11.14a.59.59,0,0,0-.92-.74,5.27,5.27,0,0,0-1,2,.59.59,0,0,0,.06.45.61.61,0,0,0,.36.27Zm0,0"/><path class="cls-4" d="M30.2,12.65a.59.59,0,0,0,.57.44l.15,0a.59.59,0,0,0,.36-.28.56.56,0,0,0,.06-.44,5.3,5.3,0,0,0-1-2,.59.59,0,0,0-.92.75,4.27,4.27,0,0,1,.81,1.55Zm0,0"/><path class="cls-4" d="M19.08,13.73h.05a.6.6,0,0,0,.59-.55,6.47,6.47,0,0,1,.85-2.7,6.6,6.6,0,0,1,.72-1,.59.59,0,0,0-.08-.8.6.6,0,0,0-.81,0,7.23,7.23,0,0,0-.85,1.2,7.56,7.56,0,0,0-1,3.2.59.59,0,0,0,.54.64Zm0,0"/><path class="cls-4" d="M31.83,10.47a6.37,6.37,0,0,1,.85,2.72.6.6,0,0,0,.59.54h.06a.59.59,0,0,0,.53-.64A7.72,7.72,0,0,0,32,8.7a.6.6,0,0,0-.83-.06.59.59,0,0,0-.06.84,7.75,7.75,0,0,1,.71,1Zm0,0"/><rect class="cls-5" x="35.19" y="32.91" width="9.31" height="8.68" rx="3.74" ry="3.74"/><rect class="cls-6" x="39.35" y="35.1" width="0.99" height="4.3"/><rect class="cls-6" x="39.35" y="35.1" width="0.99" height="4.3" transform="translate(77.09 -2.6) rotate(90)"/></svg>