<svg id="Capa_1" data-name="Capa 1" xmlns="http://www.w3.org/2000/svg" viewBox="0 0 122 42"><defs><style>.cls-1{fill:none;}.cls-2{fill:#b7bdc9;}</style></defs><title>logos</title><rect class="cls-1" width="122" height="42"/><path class="cls-2" d="M22.8,29.16H20.34V11.91H22.8V19.3h4.93V11.91h2.46V29.16H27.73v-7.4H22.8Z"/><path class="cls-2" d="M40.05,16.83h2.47V29.16H40.05v-.42a6.46,6.46,0,0,1-2.46.42c-3.29,0-4.93-1.65-4.93-4.93v-7.4h2.46v7.4a2.18,2.18,0,0,0,2.47,2.46,2.17,2.17,0,0,0,2.46-2.46Z"/><path class="cls-2" d="M47.45,29.16H45V16.83h2.47v.42a6.46,6.46,0,0,1,2.46-.42,5,5,0,0,1,3.7,1.24,5,5,0,0,1,3.69-1.24c3.29,0,4.93,1.65,4.93,4.93v7.4H59.77v-7.4A2.18,2.18,0,0,0,57.3,19.3a2.17,2.17,0,0,0-2.46,2.46v7.4H52.37v-7.4a2.17,2.17,0,0,0-2.46-2.46,2.17,2.17,0,0,0-2.46,2.46Z"/><path class="cls-2" d="M72.09,17.25v-.42h2.46V29.16H72.09v-.42a6.46,6.46,0,0,1-2.46.42c-3.29,0-4.93-1.65-4.93-4.93V21.76c0-3.28,1.64-4.93,4.93-4.93A6.46,6.46,0,0,1,72.09,17.25Zm0,4.51a2.47,2.47,0,0,0-4.93,0v2.47a2.47,2.47,0,0,0,4.93,0Z"/><path class="cls-2" d="M79.48,29.16H77V16.83h2.46v.42A6.55,6.55,0,0,1,82,16.83c3.28,0,4.93,1.65,4.93,4.93v7.4H84.41v-7.4a2.47,2.47,0,0,0-4.93,0Z"/><path class="cls-2" d="M96.74,17.25v-.42H99.2V29.16H96.74v-.42a6.55,6.55,0,0,1-2.47.42c-3.29,0-4.93-1.65-4.93-4.93V21.76c0-3.28,1.64-4.93,4.93-4.93A6.55,6.55,0,0,1,96.74,17.25Zm0,4.51a2.47,2.47,0,0,0-4.93,0v2.47a2.47,2.47,0,0,0,4.93,0Z"/></svg>