<svg id="Capa_1" data-name="Capa 1" xmlns="http://www.w3.org/2000/svg" viewBox="0 0 122 42"><defs><style>.cls-1{fill:none;}.cls-2{fill:#b7bdc9;}</style></defs><title>logos</title><rect class="cls-1" width="122" height="42"/><path class="cls-2" d="M27.61,15.26a6.51,6.51,0,0,1,2.47-.42c3.28,0,4.93,1.64,4.93,4.93v7.39H32.54V19.77a2.18,2.18,0,0,0-2.46-2.47,2.18,2.18,0,0,0-2.47,2.47v7.39H25.15V9.91h2.46Z"/><path class="cls-2" d="M44.86,15.26v-.42h2.47V27.16H44.86v-.42a6.46,6.46,0,0,1-2.46.42q-4.93,0-4.93-4.93V19.77q0-4.93,4.93-4.93A6.46,6.46,0,0,1,44.86,15.26Zm0,4.51A2.18,2.18,0,0,0,42.4,17.3a2.18,2.18,0,0,0-2.47,2.47v2.46A2.18,2.18,0,0,0,42.4,24.7a2.18,2.18,0,0,0,2.46-2.47Z"/><path class="cls-2" d="M52.26,27.16H49.79V14.84h2.47v.42a6.46,6.46,0,0,1,2.46-.42q4.94,0,4.93,4.93v7.39H57.19V19.77a2.18,2.18,0,0,0-2.47-2.47,2.18,2.18,0,0,0-2.46,2.47Z"/><path class="cls-2" d="M62.12,14.84h2.46v.42A6.46,6.46,0,0,1,67,14.84q4.93,0,4.93,4.93v2.46q0,4.93-4.93,4.93a6.46,6.46,0,0,1-2.46-.42v5.35H62.12Zm2.46,4.93v2.47a2.47,2.47,0,1,0,4.93,0V19.77a2.47,2.47,0,1,0-4.93,0Z"/><path class="cls-2" d="M74.67,14.84h2.47v.42a6.46,6.46,0,0,1,2.46-.42q4.94,0,4.93,4.93v2.46q0,4.93-4.93,4.93a6.46,6.46,0,0,1-2.46-.42v5.35H74.67Zm2.47,4.93v2.47a2.47,2.47,0,0,0,4.93,0V19.77a2.47,2.47,0,1,0-4.93,0Z"/><path class="cls-2" d="M89.46,27.16H87V14.84h2.47v.42a6.46,6.46,0,0,1,2.46-.42q4.93,0,4.93,4.93v7.39H94.39V19.77a2.47,2.47,0,1,0-4.93,0Z"/></svg>