<svg id="Capa_1" data-name="Capa 1" xmlns="http://www.w3.org/2000/svg" viewBox="0 0 122 42"><defs><style>.cls-1{fill:none;}.cls-2{fill:#b7bdc9;}.cls-3{fill:#acb1b7;}.cls-4{fill:#fbfcf8;}</style></defs><title>logos</title><rect class="cls-1" width="122" height="42"/><path class="cls-2" d="M33.11,33c-4.45-.56-8.82-1.62-13.24-2.35-.94-.16-.67-.81-.6-1.32.42-3.47.87-6.94,1.32-10.4a8.78,8.78,0,0,0,.12-1c0-1.56.46-2.69,2.22-2.87.77-.08,1.07-.6,1.29-1.32a12,12,0,0,1,1.11-2.48c1.93-3.35,5.23-2.79,7.21,0,.47.66.93.46,1.43.59,0,.86,0,1.72,0,2.58C33.54,20.65,33.06,26.83,33.11,33Zm-4.6-15.87a4.78,4.78,0,0,0-4.64,2.92c-.7,1.78-.32,2.88,1.58,4.58.56.5,1.09,1.09.61,1.85s-1.25.4-1.92.14a2.49,2.49,0,0,1-.51-.27c-.43-.31-.67-.37-.9.28-.49,1.39,1.16,3.2,2.91,3.13a4.22,4.22,0,0,0,3.46-2.62,3.61,3.61,0,0,0-1-4.17c-.47-.41-1-.73-1.49-1.11a1.14,1.14,0,0,1-.38-1.3c.16-.52.61-.32,1-.35s.85-.05,1.27-.1a2.21,2.21,0,0,0,1.73-2.27C30,17,29.06,17.27,28.51,17.15Zm.76-7.47C27,10,26.14,11.36,25.45,12.9c-.17.38-.81,1-.06,1.28a1.1,1.1,0,0,0,1.48-.74A7.16,7.16,0,0,1,29.27,9.68Zm-1.53,3.9c.74-.21,1.27-.38,1.82-.52s.66-.6.59-1.1,0-1-.42-1.11-.73.35-1,.66A4.71,4.71,0,0,0,27.74,13.58Zm3.14-2.93c.16.6-.35,1.37.38,1.81a.67.67,0,0,0,.61-.25C32.13,11.42,31.53,11,30.88,10.65Z"/><path class="cls-3" d="M33.11,33c0-6.19.43-12.37.83-18.54.06-.86,0-1.72,0-2.58,1,.7,1.82,1.78,3.34,1.54.64-.1.49.73.55,1.14.65,4.16,1.26,8.32,1.87,12.48a15.86,15.86,0,0,0,.4,2.69c.51,1.54-.13,2-1.55,2.16C36.74,32.16,34.93,32.64,33.11,33Z"/><path class="cls-2" d="M75.1,18.83c.53,0,.81-.5,1.25-.76A2.9,2.9,0,0,1,81,20.41c.34,3.74-1.69,6.93-4.76,7.5a1.38,1.38,0,0,1-.71.08c-1.63-.64-2,.13-2.22,1.63-.36,2.46-.47,2.45-3.13,2.07.8-4.47,1.57-8.94,2.42-13.4.23-1.24,1.31-.47,2-.57C75.8,17.52,74.43,18.62,75.1,18.83ZM78,22c0-1,.08-1.76-.82-2s-1.4.37-1.85,1a8.19,8.19,0,0,0-1,3.26c-.09.48-.53,1.12.24,1.51a1.53,1.53,0,0,0,1.84-.32A4.92,4.92,0,0,0,78,22Z"/><path class="cls-2" d="M55,18.64c1.16-.5,2-1.14,3.11-1.05,1.33.1,2.07.69,2.1,2A30.49,30.49,0,0,1,59,27.39c-.21.95-1.58.37-2.4.37s-.26-.63-.2-1c.29-1.79.66-3.57.94-5.37.09-.53.25-1.22-.5-1.47s-1.18.19-1.58.71c-1.06,1.4-1.12,3.12-1.47,4.74-.54,2.53-.54,2.53-3.28,2.31.86-4.54,1.68-9.08,2.59-13.6.3-1.51,1.59-.69,2.38-.71,1,0,.39.85.34,1.26C55.61,15.93,55.31,17.17,55,18.64Zm.23,0-.09-.1a1.11,1.11,0,0,0-.09.19s0,.06.08.09Z"/><path class="cls-2" d="M97.46,24.84c.88-2.26,1.6-4.15,2.33-6a2.41,2.41,0,0,1,2.82-1c.36.22.17.48,0,.72-1.74,3.44-3.07,7.09-5.23,10.31a7.93,7.93,0,0,1-3.57,3.21c-.39.16-1,.58-1-.23s-1.19-1.39,0-2.06c.24-.15.51-.26.75-.42,1.66-1.15,2.17-1.54,1.68-3.74s-.87-4.4-1.31-6.6c-.16-.79-.19-1.26,1-1.29,1.4,0,2,.21,2.06,1.77S97.24,22.77,97.46,24.84Z"/><path class="cls-2" d="M61.21,23.94c.06-3.55,2.42-6.25,5.54-6.34a3.5,3.5,0,0,1,3.93,3.32,6.35,6.35,0,0,1-4.42,7A3.82,3.82,0,0,1,61.21,23.94Zm2.92.13c.06.57,0,1.47,1,1.72s1.53-.41,1.92-1.15a6.65,6.65,0,0,0,.83-3.43,1.43,1.43,0,0,0-1-1.44,1.46,1.46,0,0,0-1.64.6A6.12,6.12,0,0,0,64.13,24.07Z"/><path class="cls-2" d="M91.35,17.65l1.86.09c-.11,1.17,0,2.41-1.8,2.09-.6-.11-.62.43-.7.86-.37,2-.76,4-1.15,6-.08.4,0,1-.55,1a7.42,7.42,0,0,1-2.26-.1c-.32-.08-.08-.69,0-1,.35-2,.74-3.94,1.1-5.91,0-.28.36-.59-.1-.87s-1.27.42-.94-.68c.22-.71,0-1.69,1.32-1.52.52.06.44-.64.55-1,.69-2.45,2.29-3.68,4.69-3.54.43,0,1.22-.1,1,.56s.17,1.63-1,1.77C91.82,15.59,91.61,15.87,91.35,17.65Z"/><path class="cls-2" d="M47.94,17.55a6.76,6.76,0,0,1,1.33.15c.39.12,1.26-.13.93.76-.21.58.06,1.81-1.33,1.28a2.82,2.82,0,0,0-1.13-.08c-.5,0-1,.2-1.08.76a1,1,0,0,0,.58,1.06c.36.23.74.44,1.08.69a3,3,0,0,1-.48,5.31,6.25,6.25,0,0,1-3.92.35C42.66,27.6,42.54,27,43,26c.23-.49.42-.71.92-.38a.68.68,0,0,0,.27.1c.92.17,2.05.69,2.55-.45s-.71-1.38-1.38-1.85c-1-.72-1.84-1.57-1.61-3a3.37,3.37,0,0,1,2.64-2.72A8.94,8.94,0,0,1,47.94,17.55Z"/><path class="cls-2" d="M81.19,27.65c.59-3,1.23-5.91,1.68-8.83.29-1.85,1.63-1,2.44-1,1.06,0,.37.92.29,1.41-.41,2.39-.9,4.77-1.3,7.17-.16,1-.47,1.67-1.68,1.38C82.17,27.7,81.67,27.93,81.19,27.65Z"/><path class="cls-2" d="M86.56,15.11A1.49,1.49,0,0,1,85,16.56a1.27,1.27,0,0,1-1.46-1.49,1.54,1.54,0,0,1,1.68-1.55C86.09,13.51,86.55,14.05,86.56,15.11Z"/><path class="cls-4" d="M28.51,17.15c.55.12,1.45-.17,1.69.71a2.21,2.21,0,0,1-1.73,2.27c-.42.05-.85.06-1.27.1s-.81-.17-1,.35a1.14,1.14,0,0,0,.38,1.3c.48.38,1,.7,1.49,1.11a3.61,3.61,0,0,1,1,4.17,4.22,4.22,0,0,1-3.46,2.62c-1.75.07-3.4-1.74-2.91-3.13.23-.65.47-.59.9-.28a2.49,2.49,0,0,0,.51.27c.67.26,1.42.65,1.92-.14s0-1.35-.61-1.85c-1.9-1.7-2.28-2.8-1.58-4.58A4.78,4.78,0,0,1,28.51,17.15Z"/><path class="cls-2" d="M55.25,18.66l-.1.18s-.09-.07-.08-.09a1.11,1.11,0,0,1,.09-.19Z"/></svg>