<svg id="Capa_1" data-name="Capa 1" xmlns="http://www.w3.org/2000/svg" viewBox="0 0 122 42"><defs><style>.cls-1{fill:none;}.cls-2{fill:#b7bdc9;}</style></defs><title>logos</title><rect class="cls-1" width="122" height="42"/><path class="cls-2" d="M18.17,21.6v.86A1.63,1.63,0,0,0,20,24.32l4.93.05,0,2.46-4.93,0c-2.88,0-4.3-1.48-4.28-4.35l0-3.7q0-4.32,4.35-4.27h1.23c2.87,0,4.3,1.47,4.27,4.35l0,2.83Zm0-2,4.93.05V18.8a1.63,1.63,0,0,0-1.83-1.86H20.06a1.63,1.63,0,0,0-1.87,1.83Z"/><path class="cls-2" d="M28,26.86l0-2.47,5.54.05a1.09,1.09,0,0,0,1.25-1.22c0-.9-.4-1.36-1.22-1.37H31.72c-2.47,0-3.69-1.23-3.67-3.61s1.27-3.68,3.73-3.66l5.55,0,0,2.46-5.55,0a1.09,1.09,0,0,0-1.24,1.22c0,.74.4,1.12,1.22,1.12l1.85,0q3.69,0,3.66,3.85T33.52,26.9Z"/><path class="cls-2" d="M47.19,14.7l2.46,0-.11,12.33-2.09,0-.36-1.24A4.17,4.17,0,0,1,44,27c-2.88,0-4.3-1.48-4.28-4.35l.07-8,2.47,0-.07,8A1.63,1.63,0,0,0,44,24.53a6.75,6.75,0,0,0,3.08-.59Z"/><path class="cls-2" d="M54.47,27.09l-2.46,0,.1-12.33,2.1,0L54.57,16a4.17,4.17,0,0,1,3.09-1.21h.61l0,2.46h-.61a6.82,6.82,0,0,0-3.09.59Z"/><path class="cls-2" d="M67.47,19.81A2.18,2.18,0,0,0,65,17.32l-3.7,0,0-2.46,3.69,0c3.29,0,4.92,1.68,4.89,5l-.07,7.39-2.09,0L67.42,26a4.16,4.16,0,0,1-3.09,1.2c-2.88,0-4.3-1.27-4.28-3.73s1.47-3.68,4.34-3.66A4.15,4.15,0,0,1,67.46,21Zm0,4.31V22.89a6.86,6.86,0,0,0-3.08-.64c-1.23,0-1.85.39-1.86,1.21s.61,1.24,1.84,1.25A7,7,0,0,0,67.44,24.12Z"/><path class="cls-2" d="M74.8,27.27l-2.46,0,.11-12.32,2.09,0,.36,1.24A4.17,4.17,0,0,1,78,15c2.88,0,4.3,1.48,4.28,4.35l-.07,8-2.47,0,.07-8A1.63,1.63,0,0,0,78,17.44a6.83,6.83,0,0,0-3.09.58Z"/><path class="cls-2" d="M87.16,23.06A1.64,1.64,0,0,0,89,24.93l4.93,0,0,2.46-4.93,0c-2.87,0-4.3-1.48-4.27-4.35l0-3.7c0-2.87,1.48-4.3,4.35-4.27l4.93,0,0,2.47-4.93,0a1.64,1.64,0,0,0-1.87,1.83Z"/><path class="cls-2" d="M98.89,22.3v.86A1.63,1.63,0,0,0,100.71,25l4.93,0,0,2.46-4.93,0q-4.32,0-4.27-4.35l0-3.7q0-4.31,4.35-4.27H102c2.88,0,4.3,1.48,4.28,4.35l0,2.83Zm0-2,4.93,0v-.86A1.63,1.63,0,0,0,102,17.65l-1.23,0a1.64,1.64,0,0,0-1.87,1.84Z"/></svg>