<svg id="Capa_1" data-name="Capa 1" xmlns="http://www.w3.org/2000/svg" xmlns:xlink="http://www.w3.org/1999/xlink" viewBox="0 0 70 59"><defs><style>.cls-1{fill:url(#Degradado_sin_nombre_25);}.cls-2{opacity:0.77;}.cls-3{fill:#fff;}</style><linearGradient id="Degradado_sin_nombre_25" x1="12.5" y1="29.5" x2="57.5" y2="29.5" gradientUnits="userSpaceOnUse"><stop offset="0.04" stop-color="#6966f3"/><stop offset="0.29" stop-color="#605ced"/><stop offset="0.69" stop-color="#4944dc"/></linearGradient></defs><title>persona contact</title><circle class="cls-1" cx="35" cy="29.5" r="22.5"/><g class="cls-2"><path class="cls-3" d="M35,43.86c-2.37,0-4.74,0-7.11,0a11.16,11.16,0,0,1-3-.37,3.44,3.44,0,0,1-2.68-3.25,8.5,8.5,0,0,1,7-9.18l.11,0c.39-.11.6-.07.7.42a2.21,2.21,0,0,0,1.14,1.32,6.7,6.7,0,0,0,3.05.95,8.26,8.26,0,0,0,4.22-.64,3.92,3.92,0,0,0,1.21-.84,1.84,1.84,0,0,0,.47-.73c.06-.17.07-.48.17-.51a1.56,1.56,0,0,1,.67.06,8.48,8.48,0,0,1,6.94,7.37,6.84,6.84,0,0,1,0,2,3.49,3.49,0,0,1-3,3.17,16.61,16.61,0,0,1-3.44.3H35Z"/><path class="cls-3" d="M27.91,22.32A7.08,7.08,0,0,1,42,21.21,9.52,9.52,0,0,1,41.29,26a11.24,11.24,0,0,1-3.19,4.73,4.47,4.47,0,0,1-6.2,0,11.79,11.79,0,0,1-3.59-5.87A9.12,9.12,0,0,1,27.91,22.32Z"/></g></svg>