<svg id="Capa_1" data-name="Capa 1" xmlns="http://www.w3.org/2000/svg" xmlns:xlink="http://www.w3.org/1999/xlink" viewBox="0 0 1300 450"><defs><style>.cls-1{fill:none;}.cls-2{fill:url(#Degradado_sin_nombre_16);}.cls-3{clip-path:url(#clip-path);}.cls-4{opacity:0.62;}.cls-5{fill:url(#Degradado_sin_nombre_14);}.cls-6{fill:url(#Degradado_sin_nombre_14-2);}.cls-7{fill:url(#Degradado_sin_nombre_14-3);}.cls-8{fill:url(#Degradado_sin_nombre_14-4);}.cls-9{fill:url(#Degradado_sin_nombre_14-5);}.cls-10{fill:url(#Degradado_sin_nombre_14-6);}.cls-11{fill:url(#Degradado_sin_nombre_14-7);}</style><linearGradient id="Degradado_sin_nombre_16" x1="650" x2="650" y2="439" gradientUnits="userSpaceOnUse"><stop offset="0" stop-color="#232e7e"/><stop offset="0.27" stop-color="#222d7b"/><stop offset="0.51" stop-color="#1f2870"/><stop offset="0.66" stop-color="#1b2465"/><stop offset="0.71" stop-color="#18215b"/><stop offset="0.81" stop-color="#111741"/><stop offset="0.94" stop-color="#060818"/><stop offset="1"/></linearGradient><clipPath id="clip-path"><path class="cls-1" d="M0,0V148.74c42-.21,90.17,9.59,127.63,45.56C227,289.74,640,609.81,1017,320.89c0,0,207.21-119.21,283-97.07V0Z"/></clipPath><linearGradient id="Degradado_sin_nombre_14" x1="-383.6" y1="135.62" x2="351.29" y2="135.62" gradientTransform="translate(185.97 219.38) rotate(-20.97)" gradientUnits="userSpaceOnUse"><stop offset="0" stop-color="#232e7e"/><stop offset="0.23" stop-color="#222c7a"/><stop offset="0.48" stop-color="#1e276d"/><stop offset="0.58" stop-color="#1b2465"/><stop offset="0.65" stop-color="#18215b"/><stop offset="0.77" stop-color="#111741"/><stop offset="0.92" stop-color="#060818"/><stop offset="1"/></linearGradient><linearGradient id="Degradado_sin_nombre_14-2" x1="-58.67" y1="24.25" x2="352.01" y2="24.25" xlink:href="#Degradado_sin_nombre_14"/><linearGradient id="Degradado_sin_nombre_14-3" x1="217.17" y1="-21.62" x2="483.36" y2="-21.62" xlink:href="#Degradado_sin_nombre_14"/><linearGradient id="Degradado_sin_nombre_14-4" x1="320.97" y1="21.86" x2="819.14" y2="21.86" xlink:href="#Degradado_sin_nombre_14"/><linearGradient id="Degradado_sin_nombre_14-5" x1="348.49" y1="147.78" x2="1095.03" y2="147.78" xlink:href="#Degradado_sin_nombre_14"/><linearGradient id="Degradado_sin_nombre_14-6" x1="348.87" y1="332.49" x2="1266.82" y2="332.49" xlink:href="#Degradado_sin_nombre_14"/><linearGradient id="Degradado_sin_nombre_14-7" x1="349.67" y1="550.84" x2="1280.37" y2="550.84" xlink:href="#Degradado_sin_nombre_14"/></defs><title>Sin título-1</title><path class="cls-2" d="M0,0V148.74c42-.21,90.17,9.59,127.63,45.56C227,289.74,640,609.81,1017,320.89c0,0,207.21-119.21,283-97.07V0Z"/><g class="cls-3"><g class="cls-4"><path class="cls-5" d="M645.72,529.39a642.36,642.36,0,0,1-85,26c-60.37,13.82-146.84,22.87-216-12.48-67.93-34.74-108.28-101-151-171.07C151.65,302.69,108.07,231.17,33.38,177.4-11,145.47-55.5,133.29-98.94,141.19c-74.29,13.51-120.52,81.89-121,82.58l-4.35-2.89c.47-.71,48-70.92,124.4-84.83,44.88-8.16,90.74,4.32,136.3,37.12,75.55,54.38,119.41,126.36,161.82,196,42.33,69.46,82.3,135.07,148.92,169.13,67.73,34.64,152.9,25.67,212.42,12,64.67-14.81,113.81-38.13,114.3-38.36l2.25,4.71C675.9,516.78,664.56,522.16,645.72,529.39Z"/><path class="cls-6" d="M675,516.92c-.54,0-55.51.11-120.87-14.25-60.48-13.29-142.53-42-189.94-103.54C317.63,338.71,309.43,261.6,300.76,180c-8.56-80.55-17.41-163.83-62-244.35-26.47-47.81-61.5-77.84-104.13-89.25-72.9-19.53-144,22.55-144.71,23l-2.69-4.47c.72-.44,73.64-43.64,148.71-23.56C180-146.91,216.16-116,243.34-66.92c45.09,81.45,54,165.26,62.61,246.33,8.59,80.88,16.71,157.28,62.39,216.53,46.43,60.23,127.22,88.5,186.83,101.6C620,511.8,674.46,511.71,675,511.7Z"/><path class="cls-7" d="M673.91,516.68c-.5-.23-50.24-23.62-103.2-64.52-49-37.86-110.92-98.9-127.52-174.75-16.3-74.54,9.23-147.76,36.25-225.28,26.67-76.48,54.24-155.57,48.33-247.41-3.5-54.53-22.35-96.64-56-125.18-57.57-48.79-139.83-41.12-140.65-41l-.53-5.19c.85-.09,85.23-8,144.52,42.22C509.91-295,529.38-251.63,533-195.62c6,92.9-21.78,172.5-48.62,249.47-26.78,76.8-52.07,149.35-36.08,222.44C464.55,350.61,525.57,410.7,573.9,448c52.5,40.55,101.72,63.7,102.22,63.93Z"/><path class="cls-8" d="M673,516c-.35-.42-35.33-42.82-65.74-102.42-28.15-55.16-58-136.8-40.66-212.48,17.1-74.35,71.46-129.65,129-188.2C752.39-44.88,811.1-104.61,845-190.18c20.13-50.81,21.07-97,2.8-137.15-31.25-68.74-108.85-96.87-109.63-97.15l1.74-4.92c.8.28,80.48,29.17,112.64,99.91,18.88,41.53,18,89.05-2.69,141.23-34.29,86.55-93.38,146.67-150.52,204.8S588.45,129.34,571.69,202.25c-17,74.12,12.44,154.47,40.17,208.84C642,470.2,676.67,512.23,677,512.65Z"/><path class="cls-9" d="M677.54,513.66l-5.06,1.3c-.13-.53-13.65-53.81-15.69-120.69-1.89-61.9,6-148.49,54-209.48,47.22-59.93,120-86.71,197-115.06,76-28,154.61-56.9,221.8-119.79,39.9-37.34,60.46-78.65,61.12-122.78,1.12-75.45-57-134.12-57.63-134.71l3.68-3.7c.6.6,60.31,60.75,59.17,138.45-.67,45.61-21.79,88.19-62.77,126.55-68,63.61-147.07,92.72-223.57,120.87C833.3,102.72,761.19,129.25,714.89,188,667.81,247.78,660.14,333.08,662,394.11,664,460.42,677.41,513.14,677.54,513.66Z"/><path class="cls-10" d="M677.58,514.81l-5.13-1c.1-.54,10.63-54.49,37.36-115.83,24.74-56.78,68.81-131.72,138.31-166.34,68.29-34,145.53-27.15,227.31-19.87,80.68,7.17,164.1,14.59,251.72-13.57,52-16.72,88.25-45.28,107.7-84.9,33.25-67.75,5.72-145.64,5.44-146.42l4.91-1.78c.29.8,28.57,80.69-5.64,150.46-20.09,41-57.37,70.43-110.81,87.61-88.63,28.49-172.59,21-253.79,13.79-81-7.2-157.52-14-224.51,19.35C782.35,270.24,739,344.09,714.6,400.07,688.1,460.89,677.68,514.27,677.58,514.81Z"/><path class="cls-11" d="M1496.67,503.2c-28.23,10.82-60.91,13.86-97.66,9-92.3-12.1-165-54.72-235.36-95.93s-136.46-80-211.27-78.41c-76,1.58-146.75,49.79-192.69,90-50,43.67-82.25,87.56-82.57,88l-4.21-3.08c.32-.44,32.89-44.72,83.26-88.77,46.61-40.77,118.48-89.7,196.11-91.32,76.27-1.59,143.18,37.62,214,79.13,69.88,40.95,142.14,83.29,233.4,95.26,54.17,7.1,99.14-3.25,133.64-30.77,59-47.05,67.39-129.23,67.47-130.06l5.19.49c-.08.85-8.63,85.16-69.37,133.63A149.33,149.33,0,0,1,1496.67,503.2Z"/></g></g></svg>